<?xml version="1.0" standalone="no"?>
<!DOCTYPE svg PUBLIC "-//W3C//DTD SVG 1.1//EN" "http://www.w3.org/Graphics/SVG/1.1/DTD/svg11.dtd" >
<svg xmlns="http://www.w3.org/2000/svg" xmlns:xlink="http://www.w3.org/1999/xlink" version="1.1">
<metadata>
Created by FontForge 20170731 at Tue Jan 17 15:36:57 2006
 By Aleksey,,,
Font software Copyright 1993, 1994, 2001 Adobe Systems Incorporated. Typeface designs Copyright 2005 International Typeface Corporation. All rights reserved.
</metadata>
<defs>
<font id="ITCAvantGardeStd-Demi" horiz-adv-x="560" >
  <font-face 
    font-family="ITC Avant Garde Std Bk"
    font-weight="600"
    font-stretch="normal"
    units-per-em="1000"
    panose-1="2 0 5 3 3 0 0 2 0 4"
    ascent="740"
    descent="-260"
    x-height="555"
    cap-height="740"
    bbox="-123 -251 1222 1021"
    underline-thickness="50"
    underline-position="-250"
    unicode-range="U+0020-FB04"
  />
<missing-glyph horiz-adv-x="0" 
d="M12 0v665h475v-665h-475zM88 618l162 -243l161 243h-323zM60 575v-484l40 61l80 120l41 61zM440 575l-162 -242l162 -243v485zM411 48l-161 242l-162 -242h323z" />
    <glyph glyph-name="f_t" unicode="ft" horiz-adv-x="532" 
d="M531 437h-80v-437h-133v437h-123v-437h-133v437h-47v118h47q6 79 57 132t124 53h37v-131q-55 0 -71 -20q-8 -11 -13 -34h122v185h133v-185h80v-118z" />
    <glyph glyph-name="f_f_t" unicode="fft" horiz-adv-x="788" 
d="M787 437h-80v-437h-133v437h-123v-437h-133v437h-123v-437h-133v437h-47v118h47q6 79 57 132t124 53h37v-131q-55 0 -71 -20q-8 -11 -13 -34h122q6 79 57 132t124 53h37v-131q-55 0 -71 -20q-8 -11 -13 -34h122v185h133v-185h80v-118z" />
    <glyph glyph-name="f_f" unicode="ff" horiz-adv-x="536" 
d="M529 437h-78v-437h-133v437h-123v-437h-133v437h-47v118h47q6 79 57 132t124 53h37v-131q-55 0 -71 -20q-8 -11 -13 -34h121q7 79 58 132t117 53h37v-131q-31 0 -43.5 -4t-21.5 -16q-11 -14 -13 -34h78v-118z" />
    <glyph glyph-name="f_i" unicode="fi" horiz-adv-x="520" 
d="M461 618h-133v122h133v-122zM461 0h-133v437h-123v-437h-133v437h-47v118h47q9 102 65 155q50 45 116 45h37v-131q-47 -1 -64.5 -13t-20.5 -56h256v-555z" />
    <glyph glyph-name="f_l" unicode="fl" horiz-adv-x="520" 
d="M461 0h-133v437h-123v-437h-133v437h-47v118h47q9 102 65 155q50 45 116 45h37v-131q-47 -1 -64.5 -13t-20.5 -56h123v185h133v-740z" />
    <glyph glyph-name="f_f_i" unicode="ffi" horiz-adv-x="761" 
d="M707 609h-133v131h133v-131zM707 0h-133v437h-123v-437h-133v437h-123v-437h-133v437h-47v118h47q6 79 57 132t124 53h37v-131q-55 0 -71 -20q-8 -11 -13 -34h122q6 79 57 132t124 53h37v-131q-55 0 -71 -20q-10 -12 -14 -34h256v-555z" />
    <glyph glyph-name="f_f_l" unicode="ffl" horiz-adv-x="761" 
d="M707 0h-133v437h-123v-437h-133v437h-123v-437h-133v437h-47v118h47q6 79 57 132t124 53h37v-131q-55 0 -71 -20q-8 -11 -13 -34h122q6 79 57 132t124 53h37v-131q-55 0 -71 -20q-10 -12 -14 -34h123v185h133v-740z" />
    <glyph glyph-name=".notdef" horiz-adv-x="0" 
d="M12 0v665h475v-665h-475zM88 618l162 -243l161 243h-323zM60 575v-484l40 61l80 120l41 61zM440 575l-162 -242l162 -243v485zM411 48l-161 242l-162 -242h323z" />
    <glyph glyph-name=".null" horiz-adv-x="0" 
 />
    <glyph glyph-name="nonmarkingreturn" horiz-adv-x="333" 
 />
    <glyph glyph-name="space" unicode=" " horiz-adv-x="280" 
 />
    <glyph glyph-name="exclam" unicode="!" horiz-adv-x="280" 
d="M206 188h-133v552h133v-552zM206 0h-133v127h133v-127z" />
    <glyph glyph-name="quotedbl" unicode="&#x22;" horiz-adv-x="360" 
d="M341 740l-26 -296h-82l-25 296h133zM152 740l-27 -296h-80l-26 296h133z" />
    <glyph glyph-name="numbersign" unicode="#" 
d="M525 503l-4 -95h-86l-16 -116h76l-4 -95h-86l-27 -197h-100l27 197h-91l-27 -197h-100l27 197h-85l4 95h95l16 116h-85l4 95h94l27 197h100l-27 -197h91l27 197h100l-27 -197h77zM335 408h-91l-16 -116h91z" />
    <glyph glyph-name="dollar" unicode="$" 
d="M501 250q0 -74 -40.5 -129.5t-111.5 -74.5v-132h-126v131q-78 21 -121.5 73.5t-43.5 130.5h132q2 -38 26.5 -62t62.5 -24q37 0 63 24.5t26 61.5q0 23 -7.5 39.5t-24 26.5t-30.5 15.5t-38 12.5q-7 2 -11 3q-171 50 -171 198q0 67 36.5 117t100.5 68v128h126v-130
q56 -18 90 -64t39 -107h-125q-17 61 -68 61q-27 0 -46.5 -20.5t-19.5 -48.5q0 -33 18 -48.5t55 -28.5q29 -10 52 -17q157 -49 157 -204z" />
    <glyph glyph-name="percent" unicode="%" horiz-adv-x="860" 
d="M822 166q0 -74 -53 -127.5t-127 -53.5q-75 0 -128 53t-53 128t53 128t128 53t127.5 -53t52.5 -128zM632 740l-307 -740h-101l306 740h102zM396 574q0 -74 -53 -127t-127 -53t-127 53t-53 127q0 75 52.5 128t127.5 53t127.5 -53t52.5 -128zM711 166q0 29 -20 49.5
t-49 20.5t-49.5 -20.5t-20.5 -49.5q0 -28 21 -49t49 -21t48.5 20.5t20.5 49.5zM285 575q0 29 -20.5 49t-48.5 20q-29 0 -49 -20.5t-20 -49.5q0 -28 20.5 -48.5t48.5 -20.5t48.5 20.5t20.5 49.5z" />
    <glyph glyph-name="ampersand" unicode="&#x26;" horiz-adv-x="680" 
d="M665 71l-97 -86l-102 111q-80 -111 -188 -111q-99 0 -171.5 68t-72.5 167q0 71 36 120.5t103 88.5q-32 37 -47 67.5t-15 71.5q0 79 54 133t134 54q79 0 135 -52.5t56 -130.5q0 -117 -117 -182l68 -76l72 123h148l-127 -224zM364 566q0 29 -18 46t-47 17q-26 0 -44 -18
t-18 -43q0 -16 10 -34t17.5 -26t25.5 -26q23 12 36 20.5t25.5 25.5t12.5 38zM373 197l-116 126q-42 -20 -66 -44.5t-24 -64.5q0 -43 29.5 -71t72.5 -28q35 0 59 22t45 60z" />
    <glyph glyph-name="quotesingle" unicode="'" horiz-adv-x="220" 
d="M177 740l-26 -296h-81l-26 296h133z" />
    <glyph glyph-name="parenleft" unicode="(" horiz-adv-x="380" 
d="M350 -157q-44 15 -74 35.5t-65 57.5q-65 69 -101 166t-36 195q0 104 38.5 204.5t110.5 170.5q51 50 127 82v-144q-69 -56 -104 -138t-35 -174q0 -88 36.5 -176.5t102.5 -134.5v-144z" />
    <glyph glyph-name="parenright" unicode=")" horiz-adv-x="380" 
d="M313 300q0 -104 -38.5 -204.5t-110.5 -170.5q-51 -50 -127 -82v144q69 56 104 138t35 174q0 88 -36.5 176.5t-102.5 134.5v144q44 -15 74 -35.5t65 -57.5q65 -69 101 -166t36 -195z" />
    <glyph glyph-name="asterisk" unicode="*" horiz-adv-x="440" 
d="M374 638l-1 -67l-101 5l56 -83l-61 -36l-46 92l-47 -92l-61 36l57 83l-102 -5l-1 67l102 -5l-55 83l56 39l51 -92l51 92l56 -39l-56 -83z" />
    <glyph glyph-name="plus" unicode="+" horiz-adv-x="600" 
d="M552 193h-192v-193h-120v193h-192v120h192v193h120v-193h192v-120z" />
    <glyph glyph-name="comma" unicode="," horiz-adv-x="280" 
d="M206 -8q0 -61 -35.5 -97t-96.5 -36v67q36 7 47 21.5t11 52.5h-59v133h133v-141z" />
    <glyph glyph-name="hyphen" unicode="-" horiz-adv-x="420" 
d="M349 230h-278v118h278v-118z" />
    <glyph glyph-name="period" unicode="." horiz-adv-x="280" 
d="M206 0h-133v133h133v-133z" />
    <glyph glyph-name="slash" unicode="/" horiz-adv-x="460" 
d="M454 740l-314 -840h-134l313 840h135z" />
    <glyph glyph-name="zero" unicode="0" 
d="M529 506v-273q0 -109 -69.5 -178.5t-178.5 -69.5q-108 0 -188 81q-61 62 -61 174v266q0 112 70.5 180.5t182.5 68.5q106 0 175 -71.5t69 -177.5zM396 245v260q0 51 -32 87.5t-82 36.5q-55 0 -86 -36.5t-31 -92.5v-252q0 -59 29.5 -98t86.5 -39t86 37.5t29 96.5z" />
    <glyph glyph-name="one" unicode="1" 
d="M363 0h-133v614h-93v126h226v-740z" />
    <glyph glyph-name="two" unicode="2" 
d="M523 0h-479v126l264 246q82 76 82 146q0 49 -30 80t-78 31q-31 0 -58 -16t-41 -44t-14 -83h-132q-1 8 -1 24q0 102 70.5 173.5t172.5 71.5t173 -70.5t71 -172.5q0 -73 -38 -132.5t-105 -119.5l-150 -134h293v-126z" />
    <glyph glyph-name="three" unicode="3" 
d="M532 233q0 -106 -74 -177t-180 -71q-102 0 -173 68t-77 170h133q5 -47 39 -79.5t81 -32.5q48 0 83 36t35 84q0 61 -42 92t-105 31h-22v126h23q40 0 66.5 20t26.5 59q0 70 -66 70q-28 0 -46 -20t-20 -48h-133q12 140 129 182q36 12 68 12q82 0 141.5 -59t59.5 -141
q0 -85 -64 -131q58 -25 87.5 -75.5t29.5 -115.5z" />
    <glyph glyph-name="four" unicode="4" 
d="M545 111h-78v-111h-133v111h-319v109l340 520h112v-503h78v-126zM334 237v278h-2l-174 -278h176z" />
    <glyph glyph-name="five" unicode="5" 
d="M535 243q0 -107 -75 -182.5t-182 -75.5q-98 0 -173.5 69t-79.5 166h133q9 -48 39.5 -78.5t77.5 -30.5q55 0 91 38.5t36 93.5q0 52 -36.5 91t-88.5 39q-59 0 -100 -53l-119 33l70 387h335v-126h-235l-24 -136q48 21 95 21q101 0 168.5 -77t67.5 -179z" />
    <glyph glyph-name="six" unicode="6" 
d="M536 251q0 -110 -73.5 -188t-182.5 -78q-110 0 -183.5 77t-73.5 188q0 84 60 175l206 314h156l-164 -250q10 3 31 3q96 0 160 -71.5t64 -169.5zM403 239q0 53 -36.5 91.5t-89.5 38.5q-50 0 -85.5 -37t-35.5 -88q0 -54 35.5 -93.5t88.5 -39.5q52 0 87.5 38t35.5 90z" />
    <glyph glyph-name="seven" unicode="7" 
d="M498 614l-267 -614h-148l276 614h-297v126h436v-126z" />
    <glyph glyph-name="eight" unicode="8" 
d="M527 225q0 -100 -73.5 -170t-173.5 -70t-173.5 70t-73.5 170q0 128 110 186q-66 64 -66 140q0 86 58.5 145t144.5 59t145 -59t59 -145q0 -75 -67 -140q110 -58 110 -186zM359 549q0 33 -23 56.5t-56 23.5t-55.5 -23.5t-22.5 -56.5q0 -32 23 -55.5t55 -23.5t55.5 23.5
t23.5 55.5zM394 225q0 47 -33.5 80.5t-80.5 33.5t-80.5 -33.5t-33.5 -80.5t33.5 -80.5t80.5 -33.5t80.5 33.5t33.5 80.5z" />
    <glyph glyph-name="nine" unicode="9" 
d="M537 489q0 -84 -60 -175l-206 -314h-156l164 250q-10 -3 -31 -3q-96 0 -160 71.5t-64 169.5q0 110 73.5 188t182.5 78q110 0 183.5 -77t73.5 -188zM404 495q0 54 -35 93.5t-88 39.5t-88.5 -37.5t-35.5 -90.5q0 -56 34.5 -93t89.5 -37q51 0 87 37t36 88z" />
    <glyph glyph-name="colon" unicode=":" horiz-adv-x="280" 
d="M206 422h-133v133h133v-133zM206 0h-133v133h133v-133z" />
    <glyph glyph-name="semicolon" unicode=";" horiz-adv-x="280" 
d="M206 422h-133v133h133v-133zM206 -8q0 -61 -35.5 -97t-96.5 -36v67q36 7 47 21.5t11 52.5h-59v133h133v-141z" />
    <glyph glyph-name="less" unicode="&#x3c;" horiz-adv-x="600" 
d="M554 -8l-508 214v94l508 214v-115l-352 -146l352 -146v-115z" />
    <glyph glyph-name="equal" unicode="=" horiz-adv-x="600" 
d="M552 305h-504v120h504v-120zM552 81h-504v120h504v-120z" />
    <glyph glyph-name="greater" unicode="&#x3e;" horiz-adv-x="600" 
d="M554 206l-508 -214v115l352 146l-352 146v115l508 -214v-94z" />
    <glyph glyph-name="question" unicode="?" 
d="M491 527q0 -55 -25.5 -95t-75.5 -87q-36 -34 -50 -57.5t-14 -66.5v-34h-133v29q0 57 17 100.5t41 68.5t48.5 46t41.5 44.5t17 51.5q0 44 -25.5 69.5t-68.5 25.5q-47 0 -66.5 -24.5t-26.5 -73.5h-133q14 166 147 215q40 16 83 16q97 0 160 -65t63 -163zM326 0h-133v133
h133v-133z" />
    <glyph glyph-name="at" unicode="@" horiz-adv-x="740" 
d="M750 415q0 -84 -41.5 -152.5t-115.5 -105.5q-44 -22 -80 -22q-25 0 -41 15.5t-17 41.5h-2q-41 -57 -109 -57q-63 0 -105.5 48.5t-42.5 112.5q0 98 60 175t155 77q81 0 104 -69h2l15 55h83l-67 -256q-8 -32 -8 -39q0 -20 18 -20q34 0 62.5 36.5t40.5 75.5q11 35 11 68
q0 112 -72 177.5t-185 65.5q-122 0 -202.5 -85.5t-80.5 -208.5q0 -127 83 -208.5t210 -81.5q62 0 119.5 23.5t97.5 67.5h76q-49 -76 -127.5 -118.5t-169.5 -42.5q-155 0 -263 104t-108 259q0 151 107.5 256t258.5 105q134 0 234 -83t100 -214zM490 379q0 36 -21 60.5
t-56 24.5q-55 0 -92.5 -50t-37.5 -106q0 -39 20.5 -64t58.5 -25q54 0 91 51.5t37 108.5z" />
    <glyph glyph-name="A" unicode="A" horiz-adv-x="740" 
d="M732 0h-151l-79 191h-265l-79 -191h-151l308 740h107zM453 320l-84 227h-2l-84 -227h170z" />
    <glyph glyph-name="B" unicode="B" horiz-adv-x="580" 
d="M551 220q0 -114 -92 -176q-65 -44 -191 -44h-198v740h160q47 0 77.5 -2.5t69.5 -16t67 -38.5t45.5 -62.5t17.5 -75.5q0 -94 -83 -141q127 -46 127 -184zM370 532q0 80 -106 80h-57v-160h52q111 0 111 80zM414 225q0 52 -39.5 75.5t-95.5 23.5h-72v-196h69q138 0 138 97z
" />
    <glyph glyph-name="C" unicode="C" horiz-adv-x="780" 
d="M766 529h-156q-84 98 -198 98q-100 0 -170.5 -77.5t-70.5 -178.5q0 -102 72.5 -180t173.5 -78t186 93h159q-42 -100 -137.5 -160.5t-204.5 -60.5q-159 0 -272.5 114.5t-113.5 273.5q0 157 113 269.5t270 112.5q114 0 208.5 -61t140.5 -165z" />
    <glyph glyph-name="D" unicode="D" horiz-adv-x="700" 
d="M657 368q0 -97 -47.5 -186t-129.5 -134q-87 -48 -246 -48h-171v740h168q206 0 304 -86q58 -51 90 -128t32 -158zM520 368q0 51 -20.5 100t-58.5 82q-32 29 -76.5 43t-76.5 16.5t-88 2.5v-484h29q116 0 180 36q52 29 81.5 85t29.5 119z" />
    <glyph glyph-name="E" unicode="E" horiz-adv-x="520" 
d="M459 0h-398v740h398v-128h-261v-181h250v-128h-250v-175h261v-128z" />
    <glyph glyph-name="F" unicode="F" horiz-adv-x="480" 
d="M438 612h-240v-181h229v-128h-229v-303h-137v740h377v-128z" />
    <glyph glyph-name="G" unicode="G" horiz-adv-x="840" 
d="M817 361q0 -156 -117 -266t-275 -110q-163 0 -280.5 111.5t-117.5 273.5q0 160 117 272.5t277 112.5q114 0 218 -64.5t141 -167.5h-164q-32 49 -85.5 76.5t-112.5 27.5q-107 0 -180.5 -75.5t-73.5 -182.5q0 -50 21 -100q31 -74 94.5 -115t145.5 -41q70 0 128.5 36.5
t90.5 99.5h-310v128h483v-16z" />
    <glyph glyph-name="H" unicode="H" horiz-adv-x="680" 
d="M610 0h-137v311h-265v-311h-137v740h137v-301h265v301h137v-740z" />
    <glyph glyph-name="I" unicode="I" horiz-adv-x="280" 
d="M209 0h-137v740h137v-740z" />
    <glyph glyph-name="J" unicode="J" horiz-adv-x="480" 
d="M409 210q0 -159 -119 -208q-40 -17 -83 -17q-85 0 -138 51.5t-67 137.5h138q14 -61 65 -61q35 0 51 25t16 63v539h137v-530z" />
    <glyph glyph-name="K" unicode="K" horiz-adv-x="620" 
d="M620 0h-161l-231 325h-2v-325h-137v740h137v-320h2l231 320h161l-279 -364z" />
    <glyph glyph-name="L" unicode="L" horiz-adv-x="440" 
d="M435 0h-363v740h137v-612h226v-128z" />
    <glyph glyph-name="M" unicode="M" horiz-adv-x="900" 
d="M837 0h-137v555h-3l-189 -555h-116l-190 555h-2v-555h-137v740h190l197 -560h2l195 560h190v-740z" />
    <glyph glyph-name="N" unicode="N" horiz-adv-x="740" 
d="M671 0h-153l-309 538h-2v-538h-137v740h156l306 -538h2v538h137v-740z" />
    <glyph glyph-name="O" unicode="O" horiz-adv-x="840" 
d="M807 368q0 -159 -113.5 -271t-273.5 -112t-273.5 112t-113.5 271q0 161 113 274t274 113t274 -113t113 -274zM670 369q0 106 -72.5 182t-177.5 76t-177.5 -76t-72.5 -182q0 -104 73 -180t177 -76t177 76t73 180z" />
    <glyph glyph-name="P" unicode="P" 
d="M545 511q0 -110 -70 -170q-44 -38 -89.5 -48.5t-118.5 -10.5h-58v-282h-137v740h195q73 0 118.5 -10.5t89.5 -48.5q70 -60 70 -170zM408 511q0 32 -12.5 53.5t-36.5 31t-47 13t-54 3.5h-49v-202h44q32 0 55 3.5t48 13t38.5 31t13.5 53.5z" />
    <glyph glyph-name="Q" unicode="Q" horiz-adv-x="840" 
d="M824 -15h-19q-86 0 -176 61q-95 -61 -210 -61q-160 0 -273.5 112t-113.5 271q0 161 113 274t274 113q159 0 273 -112t114 -270q0 -130 -81 -236q37 -24 99 -24v-128zM669 369q0 106 -72 182t-178 76q-104 0 -177 -75.5t-73 -179.5q0 -11 2 -17q38 9 101 9
q88 0 183.5 -42.5t159.5 -106.5h2q29 40 40.5 73t11.5 81zM520 135q-136 101 -249 101q-35 0 -59 -9q33 -52 89 -83t118 -31q46 0 101 22z" />
    <glyph glyph-name="R" unicode="R" horiz-adv-x="580" 
d="M565 0h-166l-196 283h-2v-283h-137v740h227q118 0 180 -50q87 -70 87 -179q0 -48 -19 -96.5t-52 -80.5q-45 -42 -123 -61zM421 500q0 54 -38 83t-94 29h-88v-226h88q58 0 95 29t37 85z" />
    <glyph glyph-name="S" unicode="S" horiz-adv-x="520" 
d="M493 221q0 -104 -68 -170t-172 -66q-99 0 -168 64.5t-73 162.5h144q4 -44 29.5 -71.5t68.5 -27.5q41 0 71.5 26t30.5 67q0 17 -4 31.5t-13.5 26t-17 19t-24 15.5t-25.5 11.5t-29.5 11t-27.5 10.5q-51 20 -67 28q-109 57 -109 185q0 91 62.5 151t154.5 60q90 0 152 -60.5
t67 -150.5h-140q-7 83 -83 83q-33 0 -54.5 -21t-21.5 -54q0 -13 3.5 -24t7.5 -19t14 -16t15.5 -12t20 -10t19.5 -8t22.5 -7.5t20.5 -6.5q93 -31 143.5 -84t50.5 -144z" />
    <glyph glyph-name="T" unicode="T" horiz-adv-x="420" 
d="M418 612h-138v-612h-137v612h-137v128h412v-128z" />
    <glyph glyph-name="U" unicode="U" horiz-adv-x="640" 
d="M585 270q0 -112 -43 -175q-37 -52 -96.5 -81t-124.5 -29q-64 0 -123.5 28t-96.5 78q-46 61 -46 179v470h137v-470q0 -157 128 -157t128 157v470h137v-470z" />
    <glyph glyph-name="V" unicode="V" horiz-adv-x="700" 
d="M695 740l-287 -740h-112l-288 740h144l198 -563h2l199 563h144z" />
    <glyph glyph-name="W" unicode="W" horiz-adv-x="900" 
d="M899 740l-215 -740h-109l-120 489h-2l-122 -489h-108l-216 740h140l128 -517h2l127 517h100l124 -517h2l129 517h140z" />
    <glyph glyph-name="X" unicode="X" horiz-adv-x="680" 
d="M676 0h-158l-178 256l-173 -256h-163l255 369l-255 371h163l173 -258l178 258h158l-256 -371z" />
    <glyph glyph-name="Y" unicode="Y" horiz-adv-x="620" 
d="M622 740l-244 -467v-273h-137v273l-243 467h150l161 -340l162 340h151z" />
    <glyph glyph-name="Z" unicode="Z" horiz-adv-x="500" 
d="M481 0h-462v112l283 500h-268v128h428v-119l-281 -493h300v-128z" />
    <glyph glyph-name="bracketleft" unicode="[" horiz-adv-x="320" 
d="M284 -157q-218 51 -218 337v269q0 241 218 305v-146q-31 -15 -45 -31q-36 -43 -36 -156v-265q0 -63 16.5 -105t64.5 -62v-146z" />
    <glyph glyph-name="backslash" unicode="\" horiz-adv-x="640" 
d="M544 -100h-134l-314 840h135z" />
    <glyph glyph-name="bracketright" unicode="]" horiz-adv-x="320" 
d="M254 148q0 -241 -218 -305v147q30 12 45 30q36 43 36 157v264q0 63 -16.5 105t-64.5 62v146q218 -51 218 -337v-269z" />
    <glyph glyph-name="asciicircum" unicode="^" horiz-adv-x="600" 
d="M527 375h-120l-107 248l-108 -248h-119l174 365h106z" />
    <glyph glyph-name="underscore" unicode="_" horiz-adv-x="500" 
d="M500 -125h-500v50h500v-50z" />
    <glyph glyph-name="grave" unicode="`" horiz-adv-x="420" 
d="M329 686l-53 -92l-226 125l57 102z" />
    <glyph glyph-name="a" unicode="a" horiz-adv-x="660" 
d="M613 0h-122v69q-33 -39 -87.5 -63t-106.5 -24q-121 0 -195.5 88t-74.5 211q0 122 78.5 207.5t199.5 85.5q92 0 164 -66q15 -15 20 -23h2v70h122v-555zM487 279q0 73 -45 123t-117 50t-118.5 -52t-46.5 -125q0 -71 47.5 -121t117.5 -50q72 0 117 51t45 124z" />
    <glyph glyph-name="b" unicode="b" horiz-adv-x="660" 
d="M632 280q0 -60 -24 -121q-33 -84 -98 -130.5t-154 -46.5q-60 0 -103.5 20t-83.5 65v-67h-122v740h133v-235q69 69 173 69q119 0 199 -87.5t80 -206.5zM499 279q0 72 -45.5 122.5t-116.5 50.5q-69 0 -117 -49t-48 -118q0 -76 46 -128.5t121 -52.5q72 0 116 50.5t44 124.5z
" />
    <glyph glyph-name="c" unicode="c" horiz-adv-x="640" 
d="M610 181q-33 -92 -107 -145.5t-171 -53.5q-123 0 -209 87.5t-86 210.5q0 122 86.5 208t207.5 86q97 0 172.5 -55t106.5 -148h-150q-45 81 -129 81q-72 0 -116.5 -50.5t-44.5 -123.5t47 -123.5t120 -50.5q75 0 123 77h150z" />
    <glyph glyph-name="d" unicode="d" horiz-adv-x="660" 
d="M618 0h-122v68h-2q-27 -42 -75 -64t-102 -22q-120 0 -201.5 87.5t-81.5 207.5q0 90 46 163.5t128 109.5q54 24 109 24q104 0 168 -68v234h133v-740zM495 278q0 70 -47.5 122t-116.5 52q-67 0 -115.5 -51.5t-48.5 -118.5q0 -71 46.5 -124.5t117.5 -53.5q69 0 116.5 52
t47.5 122z" />
    <glyph glyph-name="e" unicode="e" horiz-adv-x="640" 
d="M610 285q0 -32 -8 -67h-431q4 -19 18 -40q48 -74 135 -74q89 0 128 71h140q-27 -84 -103 -138.5t-165 -54.5q-124 0 -208.5 85t-84.5 209q0 125 83.5 211.5t208.5 86.5q121 0 204 -84t83 -205zM474 325q-10 60 -49.5 93.5t-100.5 33.5q-60 0 -101.5 -33.5t-55.5 -93.5
h307z" />
    <glyph glyph-name="f" unicode="f" horiz-adv-x="280" 
d="M280 624q-47 -1 -64.5 -13t-20.5 -56h78v-118h-78v-437h-133v437h-47v118h47q9 102 65 155q50 45 116 45h37v-131z" />
    <glyph glyph-name="g" unicode="g" horiz-adv-x="660" 
d="M623 102q0 -105 -43.5 -184.5t-134.5 -117.5q-60 -26 -125 -26q-94 0 -170 49t-109 135h152q53 -62 137 -62q73 0 119.5 49.5t50.5 123.5l-2 2q-63 -89 -182 -89q-57 0 -110 25q-82 37 -128 111.5t-46 164.5q0 118 82.5 204.5t200.5 86.5q119 0 177 -87h2v68h129v-453z
M490 283q0 67 -48 118t-115 51q-69 0 -115.5 -50t-46.5 -120q0 -73 47 -125.5t119 -52.5q70 0 114.5 53.5t44.5 125.5z" />
    <glyph glyph-name="h" unicode="h" horiz-adv-x="600" 
d="M546 0h-133v284q0 35 -4 61t-15 52.5t-35 40.5t-60 14q-35 0 -59 -15t-34.5 -42t-14.5 -53t-4 -60v-282h-133v740h133v-224q61 58 144 58q47 0 94.5 -23.5t76.5 -61.5q44 -57 44 -167v-322z" />
    <glyph glyph-name="i" unicode="i" horiz-adv-x="240" 
d="M186 618h-133v122h133v-122zM186 0h-133v555h133v-555z" />
    <glyph glyph-name="j" unicode="j" horiz-adv-x="260" 
d="M205 618h-133v122h133v-122zM205 24q0 -90 -50 -149t-139 -60v130q38 3 47 20.5t9 61.5v528h133v-531z" />
    <glyph glyph-name="k" unicode="k" horiz-adv-x="580" 
d="M571 0h-168l-188 260h-2v-260h-133v740h133v-446h2l177 261h153l-200 -272z" />
    <glyph glyph-name="l" unicode="l" horiz-adv-x="240" 
d="M187 0h-133v740h133v-740z" />
    <glyph glyph-name="m" unicode="m" horiz-adv-x="940" 
d="M887 0h-133v308q0 144 -105 144q-61 0 -92 -52q-20 -33 -20 -113v-287h-133v308q0 62 -26.5 103t-84.5 41q-35 0 -58 -15.5t-32.5 -45t-12.5 -54t-3 -60.5v-277h-133v555h122v-47h2q40 66 145 66q104 0 160 -87q61 87 179 87q120 0 183 -86q42 -59 42 -164v-324z" />
    <glyph glyph-name="n" unicode="n" horiz-adv-x="600" 
d="M547 0h-133v274q0 178 -112 178q-57 0 -91 -49q-24 -35 -24 -139v-264h-133v555h123v-48q69 67 152 67q46 0 92 -21t75 -56q51 -62 51 -189v-308z" />
    <glyph glyph-name="o" unicode="o" horiz-adv-x="640" 
d="M615 279q0 -126 -84 -211.5t-210 -85.5q-122 0 -209 87t-87 208q0 123 86.5 210t209.5 87t208.5 -86t85.5 -209zM482 276q0 69 -46.5 122.5t-114.5 53.5q-69 0 -116 -53t-47 -122q0 -71 46 -122t117 -51q69 0 115 51t46 121z" />
    <glyph glyph-name="p" unicode="p" horiz-adv-x="660" 
d="M629 280q0 -121 -79.5 -209.5t-198.5 -88.5q-54 0 -92.5 16.5t-78.5 54.5v-238h-133v740h122v-65h2q67 84 180 84q120 0 199 -86.5t79 -207.5zM496 278q0 69 -46 121.5t-114 52.5q-71 0 -117.5 -51.5t-46.5 -122.5q0 -53 25 -95t72 -63q32 -16 65 -16q69 0 115.5 52.5
t46.5 121.5z" />
    <glyph glyph-name="q" unicode="q" horiz-adv-x="660" 
d="M613 -185h-133v238q-65 -71 -169 -71q-120 0 -200 89.5t-80 211.5q0 117 82.5 204t198.5 87q118 0 177 -89h2v70h122v-740zM487 277q0 70 -46 122.5t-115 52.5t-115.5 -51t-46.5 -121q0 -73 45.5 -124.5t117.5 -51.5q68 0 114 52t46 121z" />
    <glyph glyph-name="r" unicode="r" horiz-adv-x="320" 
d="M317 445q-121 -4 -121 -133v-312h-133v555h122v-49h2q28 40 54 54t76 14v-129z" />
    <glyph glyph-name="s" unicode="s" horiz-adv-x="440" 
d="M421 176q0 -82 -55.5 -138t-138.5 -56q-48 0 -93 18.5t-73 54.5q-36 45 -42 120h136q16 -71 73 -71q25 0 42.5 15.5t17.5 40.5q0 17 -8 29q-6 9 -23 18t-30.5 14t-37 13t-26.5 9q-124 44 -124 159q0 74 55.5 123t130.5 49q73 0 125.5 -49t55.5 -121h-130q-10 48 -53 48
q-21 0 -36 -13.5t-15 -34.5q0 -14 8 -23.5t15 -13t23 -9.5t48 -16q76 -24 115.5 -59.5t39.5 -106.5z" />
    <glyph glyph-name="t" unicode="t" horiz-adv-x="300" 
d="M299 437h-80v-437h-133v437h-65v118h65v185h133v-185h80v-118z" />
    <glyph glyph-name="u" unicode="u" horiz-adv-x="600" 
d="M544 0h-122v56h-2q-54 -74 -143 -74q-56 0 -106 22.5t-80 65.5q-41 59 -41 191v294h133v-283q0 -168 116 -168q33 0 56 15t34.5 41t16.5 53t5 58v284h133v-555z" />
    <glyph glyph-name="v" unicode="v" 
d="M556 555l-225 -555h-104l-224 555h144l134 -368h3l126 368h146z" />
    <glyph glyph-name="w" unicode="w" horiz-adv-x="800" 
d="M789 555l-203 -555h-82l-104 360h-2l-105 -360h-82l-200 555h142l101 -339h2l91 339h106l90 -339h2l102 339h142z" />
    <glyph glyph-name="x" unicode="x" 
d="M556 0h-158l-119 190l-118 -190h-158l197 286l-172 269h149l102 -167l101 167h149l-172 -269z" />
    <glyph glyph-name="y" unicode="y" horiz-adv-x="580" 
d="M571 555l-319 -740h-143l102 237l-203 503h152l126 -356l134 356h151z" />
    <glyph glyph-name="z" unicode="z" horiz-adv-x="460" 
d="M442 0h-422v122l246 311h-218v122h377v-122l-246 -311h263v-122z" />
    <glyph glyph-name="braceleft" unicode="{" horiz-adv-x="340" 
d="M317 -191h-90q-19 0 -45 11q-41 17 -64.5 50.5t-23.5 76.5v216q0 36 -29 53t-68 17v99q37 0 67 14t30 47v216q0 43 23.5 76.5t64.5 50.5q26 11 45 11h90v-90h-45q-41 0 -41 -65v-212q0 -49 -36 -71.5t-89 -24.5v-3q61 -3 93 -25.5t32 -79.5v-212q0 -65 41 -65h45v-90z
" />
    <glyph glyph-name="bar" unicode="|" horiz-adv-x="600" 
d="M366 -250h-133v1000h133v-1000z" />
    <glyph glyph-name="braceright" unicode="}" horiz-adv-x="340" 
d="M343 233q-39 0 -68 -17t-29 -53v-216q0 -43 -23.5 -76.5t-64.5 -50.5q-26 -11 -45 -11h-90v90h45q41 0 41 65v212q0 57 32 79.5t93 25.5v3q-53 2 -89 24.5t-36 71.5v212q0 65 -41 65h-45v90h90q19 0 45 -11q41 -17 64.5 -50.5t23.5 -76.5v-216q0 -33 30 -47t67 -14v-99z
" />
    <glyph glyph-name="asciitilde" unicode="~" horiz-adv-x="600" 
d="M533 249q-22 -29 -35 -44t-38.5 -29.5t-53.5 -14.5q-38 0 -103.5 34t-113.5 34q-49 0 -86 -69l-36 96q49 89 127 89q40 0 114.5 -34t98.5 -34q19 0 38 13.5t27 23.5t25 33z" />
    <glyph glyph-name="uni00A0" unicode="&#xa0;" horiz-adv-x="280" 
 />
    <glyph glyph-name="exclamdown" unicode="&#xa1;" horiz-adv-x="280" 
d="M207 428h-133v127h133v-127zM207 -185h-133v551h133v-551z" />
    <glyph glyph-name="cent" unicode="&#xa2;" 
d="M517 310q-26 -66 -64.5 -104t-103.5 -58v-109h-126v109q-78 16 -129 85t-51 150q0 80 51.5 147.5t128.5 82.5v102h126v-102q38 -13 61 -25.5t47 -36.5q49 -50 60 -108h-140q-14 22 -40 34t-53 12q-46 0 -77 -32t-31 -78t31.5 -77.5t78.5 -31.5q43 0 85 40h146z" />
    <glyph glyph-name="sterling" unicode="&#xa3;" 
d="M562 224q0 -48 -20 -91q-29 -67 -86.5 -100t-133.5 -33h-284v126h139q19 35 19 72q0 56 -57 113h-141v126h56q-16 38 -16 80q0 97 71.5 167.5t168.5 70.5q69 0 126.5 -38t88.5 -101q20 -40 20 -73h-135q-8 37 -35 61.5t-64 24.5q-49 0 -78.5 -35t-29.5 -84q0 -42 28 -73
h208v-126h-109q18 -38 24.5 -60.5t6.5 -58.5t-11 -66h11q43 0 71.5 28t28.5 71q0 18 -10 50h133q10 -20 10 -51z" />
    <glyph glyph-name="currency" unicode="&#xa4;" horiz-adv-x="602" 
d="M592 122l-66 -67l-81 81q-64 -46 -144 -46q-77 0 -144 46l-81 -80l-66 65l83 83q-43 63 -43 137q0 77 45 141l-85 84l66 67l86 -85q63 43 139 43q78 0 138 -42l85 83l65 -66l-83 -83q46 -63 46 -142q0 -76 -43 -137zM428 342q0 53 -37 90.5t-90 37.5t-90 -38t-37 -91
q0 -52 37.5 -90t89.5 -38q53 0 90 38t37 91z" />
    <glyph glyph-name="yen" unicode="&#xa5;" 
d="M570 740l-138 -251h88v-105h-142l-31 -57v-33h164v-105h-164v-189h-133v189h-166v105h166v33l-32 57h-142v105h88l-138 251h137l154 -288l155 288h134z" />
    <glyph glyph-name="brokenbar" unicode="&#xa6;" horiz-adv-x="600" 
d="M366 325h-133v350h133v-350zM366 -175h-133v350h133v-350z" />
    <glyph glyph-name="section" unicode="&#xa7;" 
d="M530 291q0 -40 -23 -77.5t-59 -63.5q50 -50 50 -120q0 -87 -63 -137.5t-152 -50.5q-96 0 -158.5 58t-66.5 154h125q0 -44 28 -67t73 -23q34 0 61.5 16.5t27.5 48.5q0 7 -2 14t-4.5 11.5t-8.5 10.5t-9.5 9t-12 8.5t-11.5 7l-13 6.5t-11 6q-27 14 -83 44t-83 44
q-107 58 -107 157q0 88 89 147q-29 47 -29 94q0 80 58.5 123.5t141.5 43.5q93 0 145 -48.5t63 -139.5h-125q-12 66 -82 66q-31 0 -53.5 -13.5t-22.5 -42.5q0 -15 12.5 -28.5t21.5 -19t29 -15.5q28 -14 82 -42t82 -42q41 -21 65.5 -57.5t24.5 -81.5zM405 279q0 22 -15.5 36
t-42.5 27l-154 78q-15 -11 -27.5 -29.5t-12.5 -35.5q0 -32 57 -62l155 -79q40 30 40 65z" />
    <glyph glyph-name="dieresis" unicode="&#xa8;" horiz-adv-x="500" 
d="M422 629h-133v133h133v-133zM212 629h-134v133h134v-133z" />
    <glyph glyph-name="copyright" unicode="&#xa9;" horiz-adv-x="740" 
d="M752 370q0 -158 -112 -270t-269 -112q-159 0 -271 111.5t-112 270.5t112 270.5t271 111.5q158 0 269.5 -112t111.5 -270zM662 370q0 122 -85 209t-207 87t-207 -86.5t-85 -209.5q0 -122 85 -209t207 -87t207 87t85 209zM568 295q-8 -68 -64.5 -110t-127.5 -42
q-98 0 -156.5 65t-58.5 163t58.5 163t156.5 65q71 0 127.5 -42t64.5 -110h-90q-25 77 -102 77q-61 0 -93 -45t-32 -108q0 -66 31 -109.5t94 -43.5q42 0 66 18t36 59h90z" />
    <glyph glyph-name="ordfeminine" unicode="&#xaa;" horiz-adv-x="360" 
d="M334 448h-88v25h-2q-24 -35 -76 -35q-65 0 -107 47t-42 113q0 64 43 110.5t106 46.5q53 0 76 -36h2v26h88v-297zM248 597q0 31 -20 52t-50 21q-31 0 -50 -22t-19 -53q0 -30 19.5 -51t49.5 -21q31 0 50.5 21.5t19.5 52.5z" />
    <glyph glyph-name="guillemotleft" unicode="&#xab;" horiz-adv-x="460" 
d="M400 108l-140 131v101l140 129v-123l-68 -57l68 -58v-123zM201 108l-140 131v101l140 129v-123l-68 -57l68 -58v-123z" />
    <glyph glyph-name="logicalnot" unicode="&#xac;" horiz-adv-x="600" 
d="M552 108h-120v197h-384v120h504v-317z" />
    <glyph glyph-name="uni00AD" unicode="&#xad;" horiz-adv-x="420" 
d="M349 230h-278v118h278v-118z" />
    <glyph glyph-name="registered" unicode="&#xae;" horiz-adv-x="740" 
d="M752 370q0 -158 -112 -270t-269 -112q-159 0 -271 111.5t-112 270.5t112 270.5t271 111.5q158 0 269.5 -112t111.5 -270zM662 370q0 122 -85 209t-207 87t-207 -86.5t-85 -209.5q0 -122 85 -209t207 -87t207 87t85 209zM551 148h-89q-10 16 -13 81q-1 19 -2.5 29t-5.5 24
t-14 22.5t-25 13.5q-18 5 -31 5h-77v-175h-87v437h188q65 0 107.5 -28t42.5 -91q0 -86 -81 -106v-2q42 -12 56 -36.5t17 -72.5q0 -4 0.5 -18.5t1 -22.5t1.5 -20.5t4 -22.5t7 -17zM456 463q0 9 -4 17q-5 15 -17 23t-23.5 9.5t-29.5 1.5h-88v-121h84q38 0 58 15.5t20 54.5z
" />
    <glyph glyph-name="macron" unicode="&#xaf;" horiz-adv-x="420" 
d="M349 638h-277v111h277v-111z" />
    <glyph glyph-name="degree" unicode="&#xb0;" horiz-adv-x="400" 
d="M343 569q0 -60 -41.5 -101.5t-101.5 -41.5t-101.5 41.5t-41.5 101.5t41.5 101.5t101.5 41.5t101.5 -41.5t41.5 -101.5zM271 569q0 29 -21 51.5t-50 22.5t-50 -22.5t-21 -51.5t21 -51.5t50 -22.5t50 22.5t21 51.5z" />
    <glyph glyph-name="plusminus" unicode="&#xb1;" horiz-adv-x="600" 
d="M552 342h-192v-150h-120v150h-192v120h192v156h120v-156h192v-120zM552 0h-504v120h504v-120z" />
    <glyph glyph-name="two.superior" unicode="&#xb2;" horiz-adv-x="336" 
d="M322 421h-304v81l159 147q49 45 49 80q0 26 -16.5 42.5t-42.5 16.5q-58 0 -58 -80h-95q-1 6 -1 18q0 63 45.5 105.5t108.5 42.5t109 -42t46 -105q0 -75 -87 -150l-80 -70h167v-86z" />
    <glyph glyph-name="three.superior" unicode="&#xb3;" horiz-adv-x="336" 
d="M328 562q0 -66 -48 -108t-114 -42t-110.5 41.5t-47.5 106.5h96q2 -27 20 -44.5t45 -17.5t45 18t18 45q0 42 -26 54.5t-73 12.5v86h18.5t16.5 2t16.5 5.5t9.5 11.5t5 20q0 35 -34 35q-28 0 -28 -36h-96q3 54 37.5 88t88.5 34q51 0 89.5 -35.5t38.5 -86.5q0 -48 -34 -76
q32 -14 49.5 -45.5t17.5 -68.5z" />
    <glyph glyph-name="acute" unicode="&#xb4;" horiz-adv-x="420" 
d="M368 719l-226 -125l-53 92l222 135z" />
    <glyph glyph-name="mu" unicode="&#xb5;" horiz-adv-x="630" 
d="M558 0h-126v48h-3q-38 -66 -120 -66q-67 0 -104 42v-204h-133v735h133v-262q0 -95 22 -135q28 -54 82 -54q37 0 61.5 17.5t35.5 50t15 62.5t4 69v252h133v-555z" />
    <glyph glyph-name="paragraph" unicode="&#xb6;" horiz-adv-x="600" 
d="M607 637h-79v-740h-113v740h-97v-740h-113v458q-94 0 -153 48t-59 141q0 196 254 196h360v-103z" />
    <glyph glyph-name="periodcentered" unicode="&#xb7;" horiz-adv-x="280" 
d="M206 187h-133v133h133v-133z" />
    <glyph glyph-name="cedilla" unicode="&#xb8;" horiz-adv-x="340" 
d="M298 -153q0 -45 -27.5 -71.5t-72.5 -26.5q-37 0 -68.5 25.5t-31.5 61.5h53q3 -17 16 -27t31 -10q21 0 33.5 13.5t12.5 34.5q0 20 -13.5 35t-33.5 15q-31 0 -43 -22l-49 19l49 112l50 -7l-24 -54q16 2 25 2q42 0 67.5 -29t25.5 -71z" />
    <glyph glyph-name="one.superior" unicode="&#xb9;" horiz-adv-x="248" 
d="M176 421h-96v358h-55v86h151v-444z" />
    <glyph glyph-name="ordmasculine" unicode="&#xba;" horiz-adv-x="360" 
d="M338 597q0 -67 -45 -113t-112 -46q-65 0 -111.5 47t-46.5 111q0 66 46 112.5t112 46.5t111.5 -46t45.5 -112zM248 595q0 29 -19 52t-48 23q-30 0 -49 -22t-19 -52q0 -29 19.5 -51t48.5 -22t48 21.5t19 50.5z" />
    <glyph glyph-name="guillemotright" unicode="&#xbb;" horiz-adv-x="460" 
d="M400 239l-140 -131v123l68 58l-68 57v123l140 -129v-101zM201 239l-140 -131v123l68 58l-68 57v123l140 -129v-101z" />
    <glyph glyph-name="onequarter" unicode="&#xbc;" horiz-adv-x="706" 
d="M669 65h-49v-65h-90v65h-198v70l212 309h76v-297h49v-82zM515 740l-307 -740h-98l306 740h99zM176 296h-96v358h-55v86h151v-444zM530 147v159h-2l-97 -159h99z" />
    <glyph glyph-name="onehalf" unicode="&#xbd;" horiz-adv-x="756" 
d="M724 0h-304v81l159 147q49 45 49 80q0 26 -16.5 42.5t-42.5 16.5q-58 0 -58 -80h-95q-1 6 -1 18q0 63 45.5 105.5t108.5 42.5t109 -42t46 -105q0 -75 -87 -150l-80 -70h167v-86zM515 740l-307 -740h-98l306 740h99zM176 296h-96v358h-55v86h151v-444z" />
    <glyph glyph-name="threequarters" unicode="&#xbe;" horiz-adv-x="840" 
d="M803 65h-49v-65h-90v65h-198v70l212 309h76v-297h49v-82zM649 740l-307 -740h-98l306 740h99zM338 437q0 -66 -48 -108t-114 -42t-110.5 41.5t-47.5 106.5h96q2 -27 20 -44.5t45 -17.5t45 18t18 45q0 42 -26 54.5t-73 12.5v86h18.5t16.5 2t16.5 5.5t9.5 11.5t5 20
q0 35 -34 35q-28 0 -28 -36h-96q3 54 37.5 88t88.5 34q51 0 89.5 -35.5t38.5 -86.5q0 -48 -34 -76q32 -14 49.5 -45.5t17.5 -68.5zM664 147v159h-2l-97 -159h99z" />
    <glyph glyph-name="questiondown" unicode="&#xbf;" 
d="M366 422h-133v133h133v-133zM521 31q-14 -166 -147 -215q-40 -16 -83 -16q-97 0 -160 65t-63 163q0 55 25.5 95t75.5 87q36 34 50 57.5t14 66.5v34h133v-29q0 -57 -17 -100.5t-41 -68.5t-48.5 -46t-41.5 -44.5t-17 -51.5q0 -44 25.5 -69.5t68.5 -25.5q47 0 66.5 24.5
t26.5 73.5h133z" />
    <glyph glyph-name="Agrave" unicode="&#xc0;" horiz-adv-x="740" 
d="M732 0h-151l-79 191h-265l-79 -191h-151l308 740h107zM453 320l-84 227h-2l-84 -227h170zM489 886l-53 -92l-226 125l57 102z" />
    <glyph glyph-name="Aacute" unicode="&#xc1;" horiz-adv-x="740" 
d="M732 0h-151l-79 191h-265l-79 -191h-151l308 740h107zM453 320l-84 227h-2l-84 -227h170zM528 919l-226 -125l-53 92l222 135z" />
    <glyph glyph-name="Acircumflex" unicode="&#xc2;" horiz-adv-x="740" 
d="M732 0h-151l-79 191h-265l-79 -191h-151l308 740h107zM453 320l-84 227h-2l-84 -227h170zM570 806h-145l-53 64l-56 -64h-145l148 138h105z" />
    <glyph glyph-name="Atilde" unicode="&#xc3;" horiz-adv-x="740" 
d="M732 0h-151l-79 191h-265l-79 -191h-151l308 740h107zM453 320l-84 227h-2l-84 -227h170zM567 853q-59 -47 -114 -47q-25 0 -72.5 13.5t-72.5 13.5q-40 0 -80 -20l-54 81q57 43 116 43q26 0 74 -14.5t73 -14.5q41 0 76 23z" />
    <glyph glyph-name="Adieresis" unicode="&#xc4;" horiz-adv-x="740" 
d="M732 0h-151l-79 191h-265l-79 -191h-151l308 740h107zM453 320l-84 227h-2l-84 -227h170zM542 806h-133v133h133v-133zM332 806h-134v133h134v-133z" />
    <glyph glyph-name="Aring" unicode="&#xc5;" horiz-adv-x="740" 
d="M732 0h-151l-79 191h-265l-79 -191h-151l308 740h107zM453 320l-84 227h-2l-84 -227h170zM478 861q0 -44 -32 -75.5t-76 -31.5t-75.5 32t-31.5 75q0 45 31 76.5t76 31.5t76.5 -31.5t31.5 -76.5zM411 861q0 17 -12 29t-29 12t-28.5 -12t-11.5 -29t12 -28.5t28 -11.5
q17 0 29 11.5t12 28.5z" />
    <glyph glyph-name="AE" unicode="&#xc6;" horiz-adv-x="900" 
d="M824 0h-357v191h-196l-115 -191h-161l489 740h340v-128h-220v-181h209v-128h-209v-175h220v-128zM467 319v195h-2l-113 -195h115z" />
    <glyph glyph-name="Ccedilla" unicode="&#xc7;" horiz-adv-x="780" 
d="M508 -153q0 -45 -27.5 -71.5t-72.5 -26.5q-37 0 -68.5 25.5t-31.5 61.5h53q3 -17 16 -27t31 -10q21 0 33.5 13.5t12.5 34.5q0 20 -13.5 35t-33.5 15q-31 0 -43 -22l-49 19l42 96q-138 23 -230.5 132t-92.5 251q0 157 113 269.5t270 112.5q114 0 208.5 -61t140.5 -165
h-156q-84 98 -198 98q-100 0 -170.5 -77.5t-70.5 -178.5q0 -102 72.5 -180t173.5 -78t186 93h159q-42 -100 -137.5 -160.5t-204.5 -60.5h-12l-18 -40q16 2 25 2q42 0 67.5 -29t25.5 -71z" />
    <glyph glyph-name="Egrave" unicode="&#xc8;" horiz-adv-x="520" 
d="M459 0h-398v740h398v-128h-261v-181h250v-128h-250v-175h261v-128zM379 886l-53 -92l-226 125l57 102z" />
    <glyph glyph-name="Eacute" unicode="&#xc9;" horiz-adv-x="520" 
d="M459 0h-398v740h398v-128h-261v-181h250v-128h-250v-175h261v-128zM418 919l-226 -125l-53 92l222 135z" />
    <glyph glyph-name="Ecircumflex" unicode="&#xca;" horiz-adv-x="520" 
d="M459 0h-398v740h398v-128h-261v-181h250v-128h-250v-175h261v-128zM460 806h-145l-53 64l-56 -64h-145l148 138h105z" />
    <glyph glyph-name="Edieresis" unicode="&#xcb;" horiz-adv-x="520" 
d="M459 0h-398v740h398v-128h-261v-181h250v-128h-250v-175h261v-128zM432 806h-133v133h133v-133zM222 806h-134v133h134v-133z" />
    <glyph glyph-name="Igrave" unicode="&#xcc;" horiz-adv-x="280" 
d="M209 0h-137v740h137v-740zM234 886l-53 -92l-226 125l57 102z" />
    <glyph glyph-name="Iacute" unicode="&#xcd;" horiz-adv-x="280" 
d="M209 0h-137v740h137v-740zM323 919l-226 -125l-53 92l222 135z" />
    <glyph glyph-name="Icircumflex" unicode="&#xce;" horiz-adv-x="280" 
d="M209 0h-137v740h137v-740zM340 806h-145l-53 64l-56 -64h-145l148 138h105z" />
    <glyph glyph-name="Idieresis" unicode="&#xcf;" horiz-adv-x="280" 
d="M209 0h-137v740h137v-740zM312 806h-133v133h133v-133zM102 806h-134v133h134v-133z" />
    <glyph glyph-name="Eth" unicode="&#xd0;" horiz-adv-x="734" 
d="M691 368q0 -97 -47.5 -186t-129.5 -134q-87 -48 -246 -48h-171v311h-72v128h72v301h168q206 0 304 -86q58 -51 90 -128t32 -158zM554 368q0 51 -20.5 100t-58.5 82q-32 29 -76.5 43t-76.5 16.5t-88 2.5v-173h137v-128h-137v-183h29q116 0 180 36q52 29 81.5 85t29.5 119z
" />
    <glyph glyph-name="Ntilde" unicode="&#xd1;" horiz-adv-x="740" 
d="M671 0h-153l-309 538h-2v-538h-137v740h156l306 -538h2v538h137v-740zM567 853q-59 -47 -114 -47q-25 0 -72.5 13.5t-72.5 13.5q-40 0 -80 -20l-54 81q57 43 116 43q26 0 74 -14.5t73 -14.5q41 0 76 23z" />
    <glyph glyph-name="Ograve" unicode="&#xd2;" horiz-adv-x="840" 
d="M807 368q0 -159 -113.5 -271t-273.5 -112t-273.5 112t-113.5 271q0 161 113 274t274 113t274 -113t113 -274zM670 369q0 106 -72.5 182t-177.5 76t-177.5 -76t-72.5 -182q0 -104 73 -180t177 -76t177 76t73 180zM539 886l-53 -92l-226 125l57 102z" />
    <glyph glyph-name="Oacute" unicode="&#xd3;" horiz-adv-x="840" 
d="M807 368q0 -159 -113.5 -271t-273.5 -112t-273.5 112t-113.5 271q0 161 113 274t274 113t274 -113t113 -274zM670 369q0 106 -72.5 182t-177.5 76t-177.5 -76t-72.5 -182q0 -104 73 -180t177 -76t177 76t73 180zM578 919l-226 -125l-53 92l222 135z" />
    <glyph glyph-name="Ocircumflex" unicode="&#xd4;" horiz-adv-x="840" 
d="M807 368q0 -159 -113.5 -271t-273.5 -112t-273.5 112t-113.5 271q0 161 113 274t274 113t274 -113t113 -274zM670 369q0 106 -72.5 182t-177.5 76t-177.5 -76t-72.5 -182q0 -104 73 -180t177 -76t177 76t73 180zM620 806h-145l-53 64l-56 -64h-145l148 138h105z" />
    <glyph glyph-name="Otilde" unicode="&#xd5;" horiz-adv-x="840" 
d="M807 368q0 -159 -113.5 -271t-273.5 -112t-273.5 112t-113.5 271q0 161 113 274t274 113t274 -113t113 -274zM670 369q0 106 -72.5 182t-177.5 76t-177.5 -76t-72.5 -182q0 -104 73 -180t177 -76t177 76t73 180zM617 853q-59 -47 -114 -47q-25 0 -72.5 13.5t-72.5 13.5
q-40 0 -80 -20l-54 81q57 43 116 43q26 0 74 -14.5t73 -14.5q41 0 76 23z" />
    <glyph glyph-name="Odieresis" unicode="&#xd6;" horiz-adv-x="840" 
d="M807 368q0 -159 -113.5 -271t-273.5 -112t-273.5 112t-113.5 271q0 161 113 274t274 113t274 -113t113 -274zM670 369q0 106 -72.5 182t-177.5 76t-177.5 -76t-72.5 -182q0 -104 73 -180t177 -76t177 76t73 180zM592 806h-133v133h133v-133zM382 806h-134v133h134v-133z
" />
    <glyph glyph-name="multiply" unicode="&#xd7;" horiz-adv-x="600" 
d="M541 94l-82 -82l-159 160l-159 -160l-82 82l159 159l-159 159l82 82l159 -159l159 159l82 -82l-160 -159z" />
    <glyph glyph-name="Oslash" unicode="&#xd8;" horiz-adv-x="840" 
d="M807 368q0 -159 -113.5 -271t-273.5 -112q-82 0 -156 33l-61 -89l-110 75l60 88q-120 112 -120 276q0 161 113 274t274 113q87 0 162 -36v1l63 94l109 -75l-64 -94q117 -111 117 -277zM670 369q0 90 -56 163l-276 -405q40 -14 82 -14q104 0 177 76t73 180zM507 611
q-41 16 -87 16q-105 0 -177.5 -76t-72.5 -182q0 -91 60 -164z" />
    <glyph glyph-name="Ugrave" unicode="&#xd9;" horiz-adv-x="640" 
d="M585 270q0 -112 -43 -175q-37 -52 -96.5 -81t-124.5 -29q-64 0 -123.5 28t-96.5 78q-46 61 -46 179v470h137v-470q0 -157 128 -157t128 157v470h137v-470zM404 886l-53 -92l-226 125l57 102z" />
    <glyph glyph-name="Uacute" unicode="&#xda;" horiz-adv-x="640" 
d="M585 270q0 -112 -43 -175q-37 -52 -96.5 -81t-124.5 -29q-64 0 -123.5 28t-96.5 78q-46 61 -46 179v470h137v-470q0 -157 128 -157t128 157v470h137v-470zM513 919l-226 -125l-53 92l222 135z" />
    <glyph glyph-name="Ucircumflex" unicode="&#xdb;" horiz-adv-x="640" 
d="M585 270q0 -112 -43 -175q-37 -52 -96.5 -81t-124.5 -29q-64 0 -123.5 28t-96.5 78q-46 61 -46 179v470h137v-470q0 -157 128 -157t128 157v470h137v-470zM520 806h-145l-53 64l-56 -64h-145l148 138h105z" />
    <glyph glyph-name="Udieresis" unicode="&#xdc;" horiz-adv-x="640" 
d="M585 270q0 -112 -43 -175q-37 -52 -96.5 -81t-124.5 -29q-64 0 -123.5 28t-96.5 78q-46 61 -46 179v470h137v-470q0 -157 128 -157t128 157v470h137v-470zM492 806h-133v133h133v-133zM282 806h-134v133h134v-133z" />
    <glyph glyph-name="Yacute" unicode="&#xdd;" horiz-adv-x="620" 
d="M622 740l-244 -467v-273h-137v273l-243 467h150l161 -340l162 340h151zM503 919l-226 -125l-53 92l222 135z" />
    <glyph glyph-name="Thorn" unicode="&#xde;" 
d="M545 371q0 -110 -70 -170q-44 -38 -89.5 -48.5t-118.5 -10.5h-58v-142h-137v740h137v-140h58q73 0 118.5 -10.5t89.5 -48.5q70 -60 70 -170zM408 371q0 32 -12.5 53.5t-36.5 31t-47 13t-54 3.5h-49v-202h44q32 0 55 3.5t48 13t38.5 31t13.5 53.5z" />
    <glyph glyph-name="germandbls" unicode="&#xdf;" horiz-adv-x="600" 
d="M585 214q0 -104 -60 -168t-163 -64q-133 0 -187 91h-2v-73h-122v488q0 195 142 251q42 16 83 16q89 0 152 -60.5t63 -149.5q0 -97 -66 -136q75 -18 117.5 -68.5t42.5 -126.5zM452 200q0 39 -17.5 64t-50 35.5t-60 13.5t-66.5 3v118q47 0 73.5 29t26.5 76q0 41 -22.5 67.5
t-62.5 26.5q-89 0 -89 -130v-314h86q5 -35 31.5 -60t60.5 -25q39 0 64.5 28t25.5 68z" />
    <glyph glyph-name="agrave" unicode="&#xe0;" horiz-adv-x="660" 
d="M613 0h-122v69q-33 -39 -87.5 -63t-106.5 -24q-121 0 -195.5 88t-74.5 211q0 122 78.5 207.5t199.5 85.5q92 0 164 -66q15 -15 20 -23h2v70h122v-555zM487 279q0 73 -45 123t-117 50t-118.5 -52t-46.5 -125q0 -71 47.5 -121t117.5 -50q72 0 117 51t45 124zM449 716
l-53 -92l-226 125l57 102z" />
    <glyph glyph-name="aacute" unicode="&#xe1;" horiz-adv-x="660" 
d="M613 0h-122v69q-33 -39 -87.5 -63t-106.5 -24q-121 0 -195.5 88t-74.5 211q0 122 78.5 207.5t199.5 85.5q92 0 164 -66q15 -15 20 -23h2v70h122v-555zM487 279q0 73 -45 123t-117 50t-118.5 -52t-46.5 -125q0 -71 47.5 -121t117.5 -50q72 0 117 51t45 124zM488 749
l-226 -125l-53 92l222 135z" />
    <glyph glyph-name="acircumflex" unicode="&#xe2;" horiz-adv-x="660" 
d="M613 0h-122v69q-33 -39 -87.5 -63t-106.5 -24q-121 0 -195.5 88t-74.5 211q0 122 78.5 207.5t199.5 85.5q92 0 164 -66q15 -15 20 -23h2v70h122v-555zM487 279q0 73 -45 123t-117 50t-118.5 -52t-46.5 -125q0 -71 47.5 -121t117.5 -50q72 0 117 51t45 124zM530 636h-145
l-53 64l-56 -64h-145l148 138h105z" />
    <glyph glyph-name="atilde" unicode="&#xe3;" horiz-adv-x="660" 
d="M613 0h-122v69q-33 -39 -87.5 -63t-106.5 -24q-121 0 -195.5 88t-74.5 211q0 122 78.5 207.5t199.5 85.5q92 0 164 -66q15 -15 20 -23h2v70h122v-555zM487 279q0 73 -45 123t-117 50t-118.5 -52t-46.5 -125q0 -71 47.5 -121t117.5 -50q72 0 117 51t45 124zM527 683
q-59 -47 -114 -47q-25 0 -72.5 13.5t-72.5 13.5q-40 0 -80 -20l-54 81q57 43 116 43q26 0 74 -14.5t73 -14.5q41 0 76 23z" />
    <glyph glyph-name="adieresis" unicode="&#xe4;" horiz-adv-x="660" 
d="M613 0h-122v69q-33 -39 -87.5 -63t-106.5 -24q-121 0 -195.5 88t-74.5 211q0 122 78.5 207.5t199.5 85.5q92 0 164 -66q15 -15 20 -23h2v70h122v-555zM487 279q0 73 -45 123t-117 50t-118.5 -52t-46.5 -125q0 -71 47.5 -121t117.5 -50q72 0 117 51t45 124zM502 636h-133
v133h133v-133zM292 636h-134v133h134v-133z" />
    <glyph glyph-name="aring" unicode="&#xe5;" horiz-adv-x="660" 
d="M613 0h-122v69q-33 -39 -87.5 -63t-106.5 -24q-121 0 -195.5 88t-74.5 211q0 122 78.5 207.5t199.5 85.5q92 0 164 -66q15 -15 20 -23h2v70h122v-555zM487 279q0 73 -45 123t-117 50t-118.5 -52t-46.5 -125q0 -71 47.5 -121t117.5 -50q72 0 117 51t45 124zM438 726
q0 -44 -32 -75.5t-76 -31.5t-75.5 31.5t-31.5 75.5q0 45 31 76.5t76 31.5t76.5 -31.5t31.5 -76.5zM371 726q0 17 -12 29t-29 12t-28.5 -12t-11.5 -29q0 -16 12 -28t28 -12q17 0 29 11.5t12 28.5z" />
    <glyph glyph-name="ae" unicode="&#xe6;" horiz-adv-x="1080" 
d="M1048 267q0 -28 -4 -49h-432q12 -48 55 -81t94 -33q42 0 79.5 18t52.5 53h140q-11 -33 -37 -70q-41 -56 -100.5 -89.5t-124.5 -33.5q-106 0 -162 74h-2v-56h-122v56h-2q-52 -74 -170 -74t-201 88t-83 207q0 120 83.5 208.5t202.5 88.5q55 0 93 -15.5t77 -53.5v50h122v-50
q65 69 170 69q109 0 190 -89.5t81 -199.5v-18zM915 325q-8 58 -51 92.5t-102 34.5q-57 0 -99 -35.5t-55 -91.5h307zM481 278q0 69 -45.5 121.5t-113.5 52.5q-70 0 -115 -52.5t-45 -123.5q0 -68 46 -120t113 -52q69 0 114.5 52t45.5 122z" />
    <glyph glyph-name="ccedilla" unicode="&#xe7;" horiz-adv-x="640" 
d="M610 181q-34 -94 -108 -146.5t-173 -52.5l-17 -37q16 2 25 2q42 0 67.5 -29t25.5 -71q0 -45 -27.5 -71.5t-72.5 -26.5q-37 0 -68 25t-32 62h53q3 -17 16 -27t31 -10q21 0 33.5 13.5t12.5 34.5q0 20 -13.5 35t-33.5 15q-31 0 -43 -22l-49 19l41 94q-106 20 -173.5 102
t-67.5 190q0 122 86.5 208t207.5 86q97 0 172.5 -55t106.5 -148h-150q-45 81 -129 81q-72 0 -116.5 -50.5t-44.5 -123.5t47 -123.5t120 -50.5q75 0 123 77h150z" />
    <glyph glyph-name="egrave" unicode="&#xe8;" horiz-adv-x="640" 
d="M610 285q0 -32 -8 -67h-431q4 -19 18 -40q48 -74 135 -74q89 0 128 71h140q-27 -84 -103 -138.5t-165 -54.5q-124 0 -208.5 85t-84.5 209q0 125 83.5 211.5t208.5 86.5q121 0 204 -84t83 -205zM474 325q-10 60 -49.5 93.5t-100.5 33.5q-60 0 -101.5 -33.5t-55.5 -93.5
h307zM439 716l-53 -92l-226 125l57 102z" />
    <glyph glyph-name="eacute" unicode="&#xe9;" horiz-adv-x="640" 
d="M610 285q0 -32 -8 -67h-431q4 -19 18 -40q48 -74 135 -74q89 0 128 71h140q-27 -84 -103 -138.5t-165 -54.5q-124 0 -208.5 85t-84.5 209q0 125 83.5 211.5t208.5 86.5q121 0 204 -84t83 -205zM474 325q-10 60 -49.5 93.5t-100.5 33.5q-60 0 -101.5 -33.5t-55.5 -93.5
h307zM478 749l-226 -125l-53 92l222 135z" />
    <glyph glyph-name="ecircumflex" unicode="&#xea;" horiz-adv-x="640" 
d="M610 285q0 -32 -8 -67h-431q4 -19 18 -40q48 -74 135 -74q89 0 128 71h140q-27 -84 -103 -138.5t-165 -54.5q-124 0 -208.5 85t-84.5 209q0 125 83.5 211.5t208.5 86.5q121 0 204 -84t83 -205zM474 325q-10 60 -49.5 93.5t-100.5 33.5q-60 0 -101.5 -33.5t-55.5 -93.5
h307zM520 636h-145l-53 64l-56 -64h-145l148 138h105z" />
    <glyph glyph-name="edieresis" unicode="&#xeb;" horiz-adv-x="640" 
d="M610 285q0 -32 -8 -67h-431q4 -19 18 -40q48 -74 135 -74q89 0 128 71h140q-27 -84 -103 -138.5t-165 -54.5q-124 0 -208.5 85t-84.5 209q0 125 83.5 211.5t208.5 86.5q121 0 204 -84t83 -205zM474 325q-10 60 -49.5 93.5t-100.5 33.5q-60 0 -101.5 -33.5t-55.5 -93.5
h307zM492 636h-133v133h133v-133zM282 636h-134v133h134v-133z" />
    <glyph glyph-name="igrave" unicode="&#xec;" horiz-adv-x="240" 
d="M186 0h-133v555h133v-555zM214 716l-53 -92l-226 125l57 102z" />
    <glyph glyph-name="iacute" unicode="&#xed;" horiz-adv-x="240" 
d="M186 0h-133v555h133v-555zM303 749l-226 -125l-53 92l222 135z" />
    <glyph glyph-name="icircumflex" unicode="&#xee;" horiz-adv-x="240" 
d="M186 0h-133v555h133v-555zM320 636h-145l-53 64l-56 -64h-145l148 138h105z" />
    <glyph glyph-name="idieresis" unicode="&#xef;" horiz-adv-x="240" 
d="M186 0h-133v555h133v-555zM292 636h-133v133h133v-133zM82 636h-134v133h134v-133z" />
    <glyph glyph-name="eth" unicode="&#xf0;" horiz-adv-x="640" 
d="M616 295q0 -132 -81 -222.5t-212 -90.5q-122 0 -209 87t-87 208q0 123 86.5 209.5t209.5 86.5q30 0 52 -11l2 2q-32 30 -66 53l-151 -45l-86 56l144 44q-52 25 -106 41l150 41q38 -11 91 -40l131 40l86 -60l-132 -39q178 -150 178 -360zM484 276q0 69 -46 122.5
t-114 53.5q-70 0 -117 -52.5t-47 -122.5q0 -71 46 -122t117 -51q69 0 115 51t46 121z" />
    <glyph glyph-name="ntilde" unicode="&#xf1;" horiz-adv-x="600" 
d="M547 0h-133v274q0 178 -112 178q-57 0 -91 -49q-24 -35 -24 -139v-264h-133v555h123v-48q69 67 152 67q46 0 92 -21t75 -56q51 -62 51 -189v-308zM497 683q-59 -47 -114 -47q-25 0 -72.5 13.5t-72.5 13.5q-40 0 -80 -20l-54 81q57 43 116 43q26 0 74 -14.5t73 -14.5
q41 0 76 23z" />
    <glyph glyph-name="ograve" unicode="&#xf2;" horiz-adv-x="640" 
d="M615 279q0 -126 -84 -211.5t-210 -85.5q-122 0 -209 87t-87 208q0 123 86.5 210t209.5 87t208.5 -86t85.5 -209zM482 276q0 69 -46.5 122.5t-114.5 53.5q-69 0 -116 -53t-47 -122q0 -71 46 -122t117 -51q69 0 115 51t46 121zM439 716l-53 -92l-226 125l57 102z" />
    <glyph glyph-name="oacute" unicode="&#xf3;" horiz-adv-x="640" 
d="M615 279q0 -126 -84 -211.5t-210 -85.5q-122 0 -209 87t-87 208q0 123 86.5 210t209.5 87t208.5 -86t85.5 -209zM482 276q0 69 -46.5 122.5t-114.5 53.5q-69 0 -116 -53t-47 -122q0 -71 46 -122t117 -51q69 0 115 51t46 121zM478 749l-226 -125l-53 92l222 135z" />
    <glyph glyph-name="ocircumflex" unicode="&#xf4;" horiz-adv-x="640" 
d="M615 279q0 -126 -84 -211.5t-210 -85.5q-122 0 -209 87t-87 208q0 123 86.5 210t209.5 87t208.5 -86t85.5 -209zM482 276q0 69 -46.5 122.5t-114.5 53.5q-69 0 -116 -53t-47 -122q0 -71 46 -122t117 -51q69 0 115 51t46 121zM520 636h-145l-53 64l-56 -64h-145l148 138
h105z" />
    <glyph glyph-name="otilde" unicode="&#xf5;" horiz-adv-x="640" 
d="M615 279q0 -126 -84 -211.5t-210 -85.5q-122 0 -209 87t-87 208q0 123 86.5 210t209.5 87t208.5 -86t85.5 -209zM482 276q0 69 -46.5 122.5t-114.5 53.5q-69 0 -116 -53t-47 -122q0 -71 46 -122t117 -51q69 0 115 51t46 121zM517 683q-59 -47 -114 -47q-25 0 -72.5 13.5
t-72.5 13.5q-40 0 -80 -20l-54 81q57 43 116 43q26 0 74 -14.5t73 -14.5q41 0 76 23z" />
    <glyph glyph-name="odieresis" unicode="&#xf6;" horiz-adv-x="640" 
d="M615 279q0 -126 -84 -211.5t-210 -85.5q-122 0 -209 87t-87 208q0 123 86.5 210t209.5 87t208.5 -86t85.5 -209zM482 276q0 69 -46.5 122.5t-114.5 53.5q-69 0 -116 -53t-47 -122q0 -71 46 -122t117 -51q69 0 115 51t46 121zM492 636h-133v133h133v-133zM282 636h-134
v133h134v-133z" />
    <glyph glyph-name="divide" unicode="&#xf7;" horiz-adv-x="600" 
d="M360 406h-120v120h120v-120zM552 193h-504v120h504v-120zM360 -20h-120v120h120v-120z" />
    <glyph glyph-name="oslash" unicode="&#xf8;" horiz-adv-x="660" 
d="M625 279q0 -126 -84 -211.5t-210 -85.5q-56 0 -111 22l-38 -54l-99 68l37 54q-85 85 -85 205q0 123 86.5 210t209.5 87q61 0 116 -24q10 10 39 58l99 -69l-40 -58q80 -85 80 -202zM492 276q0 51 -25 91l-176 -258q22 -5 40 -5q69 0 115 51t46 121zM375 445q-20 7 -44 7
q-69 0 -116 -53t-47 -122q0 -52 27 -96z" />
    <glyph glyph-name="ugrave" unicode="&#xf9;" horiz-adv-x="600" 
d="M544 0h-122v56h-2q-54 -74 -143 -74q-56 0 -106 22.5t-80 65.5q-41 59 -41 191v294h133v-283q0 -168 116 -168q33 0 56 15t34.5 41t16.5 53t5 58v284h133v-555zM384 716l-53 -92l-226 125l57 102z" />
    <glyph glyph-name="uacute" unicode="&#xfa;" horiz-adv-x="600" 
d="M544 0h-122v56h-2q-54 -74 -143 -74q-56 0 -106 22.5t-80 65.5q-41 59 -41 191v294h133v-283q0 -168 116 -168q33 0 56 15t34.5 41t16.5 53t5 58v284h133v-555zM493 749l-226 -125l-53 92l222 135z" />
    <glyph glyph-name="ucircumflex" unicode="&#xfb;" horiz-adv-x="600" 
d="M544 0h-122v56h-2q-54 -74 -143 -74q-56 0 -106 22.5t-80 65.5q-41 59 -41 191v294h133v-283q0 -168 116 -168q33 0 56 15t34.5 41t16.5 53t5 58v284h133v-555zM500 636h-145l-53 64l-56 -64h-145l148 138h105z" />
    <glyph glyph-name="udieresis" unicode="&#xfc;" horiz-adv-x="600" 
d="M544 0h-122v56h-2q-54 -74 -143 -74q-56 0 -106 22.5t-80 65.5q-41 59 -41 191v294h133v-283q0 -168 116 -168q33 0 56 15t34.5 41t16.5 53t5 58v284h133v-555zM472 636h-133v133h133v-133zM262 636h-134v133h134v-133z" />
    <glyph glyph-name="yacute" unicode="&#xfd;" horiz-adv-x="580" 
d="M571 555l-319 -740h-143l102 237l-203 503h152l126 -356l134 356h151zM483 749l-226 -125l-53 92l222 135z" />
    <glyph glyph-name="thorn" unicode="&#xfe;" horiz-adv-x="660" 
d="M629 280q0 -121 -79.5 -209.5t-198.5 -88.5q-97 0 -171 71v-238h-133v925h133v-246h2q65 80 169 80q120 0 199 -86.5t79 -207.5zM496 278q0 69 -46 121.5t-114 52.5q-71 0 -117.5 -51.5t-46.5 -122.5q0 -53 25 -95t72 -63q32 -16 65 -16q69 0 115.5 52.5t46.5 121.5z" />
    <glyph glyph-name="ydieresis" unicode="&#xff;" horiz-adv-x="580" 
d="M571 555l-319 -740h-143l102 237l-203 503h152l126 -356l134 356h151zM462 636h-133v133h133v-133zM252 636h-134v133h134v-133z" />
    <glyph glyph-name="dotlessi" unicode="&#x131;" horiz-adv-x="240" 
d="M186 0h-133v555h133v-555z" />
    <glyph glyph-name="Lslash" unicode="&#x141;" horiz-adv-x="480" 
d="M460 0h-363v273l-71 -48v138l71 48v329h137v-237l128 86v-138l-128 -86v-237h226v-128z" />
    <glyph glyph-name="lslash" unicode="&#x142;" horiz-adv-x="320" 
d="M305 393l-73 -49v-344h-133v258l-65 -42v142l65 43v339h133v-252l73 48v-143z" />
    <glyph glyph-name="OE" unicode="&#x152;" horiz-adv-x="1060" 
d="M1007 0h-357v79q-41 -44 -108.5 -69t-133.5 -25q-78 0 -151 34q-103 48 -161.5 141.5t-58.5 208.5q0 116 58 210.5t162 141.5q73 34 151 34q67 0 134 -25t108 -70v80h357v-128h-220v-181h208v-128h-208v-175h220v-128zM655 365q0 104 -69.5 183t-172.5 79
q-108 0 -173.5 -80.5t-65.5 -190.5q0 -43 18 -87q29 -71 88.5 -113.5t135.5 -42.5q101 0 170 75t69 177z" />
    <glyph glyph-name="oe" unicode="&#x153;" horiz-adv-x="1080" 
d="M1050 288q0 -36 -6 -70h-434q15 -50 57.5 -82t94.5 -32q42 0 78.5 18t52.5 53h138q-28 -85 -103.5 -139t-165.5 -54q-66 0 -124.5 30.5t-94.5 85.5q-77 -116 -223 -116q-121 0 -205.5 86.5t-84.5 208.5t85.5 209.5t206.5 87.5q138 0 221 -114q85 114 218 114
q119 0 204 -83.5t85 -202.5zM915 325q-14 57 -55 92t-98 35q-59 0 -98.5 -34t-55.5 -93h307zM486 277q0 70 -46.5 122.5t-115.5 52.5q-67 0 -114 -51t-47 -119q0 -72 45.5 -125t116.5 -53q69 0 115 52t46 121z" />
    <glyph glyph-name="Scaron" unicode="&#x160;" horiz-adv-x="520" 
d="M493 221q0 -104 -68 -170t-172 -66q-99 0 -168 64.5t-73 162.5h144q4 -44 29.5 -71.5t68.5 -27.5q41 0 71.5 26t30.5 67q0 17 -4 31.5t-13.5 26t-17 19t-24 15.5t-25.5 11.5t-29.5 11t-27.5 10.5q-51 20 -67 28q-109 57 -109 185q0 91 62.5 151t154.5 60q90 0 152 -60.5
t67 -150.5h-140q-7 83 -83 83q-33 0 -54.5 -21t-21.5 -54q0 -13 3.5 -24t7.5 -19t14 -16t15.5 -12t20 -10t19.5 -8t22.5 -7.5t20.5 -6.5q93 -31 143.5 -84t50.5 -144zM460 944l-146 -138h-105l-148 138h145l56 -64l53 64h145z" />
    <glyph glyph-name="scaron" unicode="&#x161;" horiz-adv-x="440" 
d="M421 176q0 -82 -55.5 -138t-138.5 -56q-48 0 -93 18.5t-73 54.5q-36 45 -42 120h136q16 -71 73 -71q25 0 42.5 15.5t17.5 40.5q0 17 -8 29q-6 9 -23 18t-30.5 14t-37 13t-26.5 9q-124 44 -124 159q0 74 55.5 123t130.5 49q73 0 125.5 -49t55.5 -121h-130q-10 48 -53 48
q-21 0 -36 -13.5t-15 -34.5q0 -14 8 -23.5t15 -13t23 -9.5t48 -16q76 -24 115.5 -59.5t39.5 -106.5zM420 774l-146 -138h-105l-148 138h145l56 -64l53 64h145z" />
    <glyph glyph-name="Ydieresis" unicode="&#x178;" horiz-adv-x="620" 
d="M622 740l-244 -467v-273h-137v273l-243 467h150l161 -340l162 340h151zM482 806h-133v133h133v-133zM272 806h-134v133h134v-133z" />
    <glyph glyph-name="Zcaron" unicode="&#x17d;" horiz-adv-x="500" 
d="M481 0h-462v112l283 500h-268v128h428v-119l-281 -493h300v-128zM475 944l-146 -138h-105l-148 138h145l56 -64l53 64h145z" />
    <glyph glyph-name="zcaron" unicode="&#x17e;" horiz-adv-x="460" 
d="M442 0h-422v122l246 311h-218v122h377v-122l-246 -311h263v-122zM435 774l-146 -138h-105l-148 138h145l56 -64l53 64h145z" />
    <glyph glyph-name="florin" unicode="&#x192;" 
d="M512 821l-20 -117q-55 0 -77 -28.5t-33 -89.5h92l-19 -115h-93l-62 -365q-8 -45 -12 -63.5t-14.5 -52t-28 -56t-43.5 -41.5q-61 -44 -148 -44q-33 0 -54 7l20 114h16q24 0 42.5 4.5t31.5 10t23.5 18.5t16.5 23t11.5 30t8 33t6.5 39l60 343h-94l19 115h95l4 26
q16 102 76 157q61 55 144 55q24 0 32 -3z" />
    <glyph glyph-name="circumflex" unicode="&#x2c6;" horiz-adv-x="540" 
d="M470 631h-145l-53 64l-56 -64h-145l148 138h105z" />
    <glyph glyph-name="caron" unicode="&#x2c7;" horiz-adv-x="540" 
d="M470 761l-146 -138h-105l-148 138h145l56 -64l53 64h145z" />
    <glyph glyph-name="uni02C9" unicode="&#x2c9;" horiz-adv-x="420" 
d="M349 638h-277v111h277v-111z" />
    <glyph glyph-name="breve" unicode="&#x2d8;" horiz-adv-x="480" 
d="M439 765q-10 -71 -65.5 -104t-133.5 -33q-49 0 -89 12.5t-71 44.5t-38 80h108q26 -40 90 -40q66 0 91 40h108z" />
    <glyph glyph-name="dotaccent" unicode="&#x2d9;" horiz-adv-x="280" 
d="M207 636h-133v133h133v-133z" />
    <glyph glyph-name="ring" unicode="&#x2da;" horiz-adv-x="360" 
d="M288 698q0 -44 -32 -75.5t-76 -31.5t-75.5 31.5t-31.5 75.5q0 45 31 76.5t76 31.5t76.5 -31.5t31.5 -76.5zM221 698q0 17 -12 29t-29 12t-28.5 -12t-11.5 -29q0 -16 12 -28t28 -12q17 0 29 11.5t12 28.5z" />
    <glyph glyph-name="ogonek" unicode="&#x2db;" horiz-adv-x="340" 
d="M194 -204q-48 0 -81.5 25.5t-33.5 71.5q0 64 86 107h70q-64 -42 -64 -79q0 -21 15 -33t36 -12q16 0 40 11v-78q-35 -13 -68 -13z" />
    <glyph glyph-name="tilde" unicode="&#x2dc;" horiz-adv-x="480" 
d="M437 683q-59 -47 -114 -47q-25 0 -72.5 13.5t-72.5 13.5q-40 0 -80 -20l-54 81q57 43 116 43q26 0 74 -14.5t73 -14.5q41 0 76 23z" />
    <glyph glyph-name="hungarumlaut" unicode="&#x2dd;" horiz-adv-x="700" 
d="M626 760l-207 -150l-57 76l197 163zM384 760l-207 -150l-57 76l197 163z" />
    <glyph glyph-name="uni03A9" unicode="&#x3a9;" horiz-adv-x="712" 
d="M664 0h-254v97q126 116 126 276q0 104 -46.5 167.5t-131.5 63.5q-82 0 -132.5 -64.5t-50.5 -168.5q0 -161 127 -274v-97h-254v101h131q-133 114 -133 291q0 138 88 229t226 91q143 0 224 -88.5t81 -229.5q0 -177 -133 -293h132v-101z" />
    <glyph glyph-name="uni03BC" unicode="&#x3bc;" horiz-adv-x="630" 
d="M558 0h-126v48h-3q-38 -66 -120 -66q-67 0 -104 42v-204h-133v735h133v-262q0 -95 22 -135q28 -54 82 -54q37 0 61.5 17.5t35.5 50t15 62.5t4 69v252h133v-555z" />
    <glyph glyph-name="pi" unicode="&#x3c0;" horiz-adv-x="656" 
d="M596 106l25 -90q-41 -25 -96 -25q-73 0 -107.5 42.5t-34.5 110.5v263h-102v-257q0 -85 -20 -150h-136q22 67 22 158v248q-37 -6 -87 -28l-37 89q74 40 166 40h426v-100h-98v-251q0 -64 37 -64q12 0 42 14z" />
    <glyph glyph-name="endash" unicode="&#x2013;" horiz-adv-x="500" 
d="M465 230h-430v118h430v-118z" />
    <glyph glyph-name="emdash" unicode="&#x2014;" horiz-adv-x="1000" 
d="M965 230h-930v118h930v-118z" />
    <glyph glyph-name="quoteleft" unicode="&#x2018;" horiz-adv-x="280" 
d="M205 466h-133v141q0 61 35.5 97t96.5 36v-68q-28 -5 -43 -17t-15 -39q0 -11 1 -17h58v-133z" />
    <glyph glyph-name="quoteright" unicode="&#x2019;" horiz-adv-x="280" 
d="M205 599q0 -61 -35.5 -97t-96.5 -36v67q36 7 47 21.5t11 52.5h-59v133h133v-141z" />
    <glyph glyph-name="quotesinglbase" unicode="&#x201a;" horiz-adv-x="280" 
d="M205 -7q0 -61 -35.5 -97.5t-96.5 -36.5v68q36 6 47 20.5t11 52.5h-59v133h133v-140z" />
    <glyph glyph-name="quotedblleft" unicode="&#x201c;" horiz-adv-x="480" 
d="M410 466h-133v141q0 61 35.5 97t96.5 36v-68q-28 -5 -43 -17t-15 -39q0 -3 0.5 -8.5t0.5 -8.5h58v-133zM203 466h-133v141q0 61 35.5 97t96.5 36v-68q-28 -5 -43 -17t-15 -39q0 -3 0.5 -8.5t0.5 -8.5h58v-133z" />
    <glyph glyph-name="quotedblright" unicode="&#x201d;" horiz-adv-x="480" 
d="M410 599q0 -61 -35.5 -97t-96.5 -36v67q36 7 47 21.5t11 52.5h-59v133h133v-141zM203 599q0 -61 -35.5 -97t-96.5 -36v67q36 7 47 21.5t11 52.5h-59v133h133v-141z" />
    <glyph glyph-name="quotedblbase" unicode="&#x201e;" horiz-adv-x="480" 
d="M410 -7q0 -62 -35.5 -98t-96.5 -36v68q36 6 47 20.5t11 52.5h-59v133h133v-140zM203 -7q0 -62 -35.5 -98t-96.5 -36v68q36 6 47 20.5t11 52.5h-59v133h133v-140z" />
    <glyph glyph-name="dagger" unicode="&#x2020;" 
d="M509 442h-162v-584h-133v584h-163v113h163v185h133v-185h162v-113z" />
    <glyph glyph-name="daggerdbl" unicode="&#x2021;" 
d="M509 67h-163v-209h-133v209h-162v112h162v296h-162v112h162v153h133v-153h163v-112h-163v-296h163v-112z" />
    <glyph glyph-name="bullet" unicode="&#x2022;" horiz-adv-x="600" 
d="M453 377q0 -63 -44.5 -109t-107.5 -46t-108 46t-45 109q0 64 45 109.5t109 45.5q63 0 107 -46t44 -109z" />
    <glyph glyph-name="ellipsis" unicode="&#x2026;" horiz-adv-x="1000" 
d="M899 0h-133v133h133v-133zM566 0h-133v133h133v-133zM233 0h-133v133h133v-133z" />
    <glyph glyph-name="perthousand" unicode="&#x2030;" horiz-adv-x="1280" 
d="M1222 166q0 -74 -53 -127.5t-127 -53.5q-75 0 -128 53t-53 128t53 128t128 53t127.5 -53t52.5 -128zM822 166q0 -74 -53 -127.5t-127 -53.5q-75 0 -128 53t-53 128t53 128t128 53t127.5 -53t52.5 -128zM632 740l-307 -740h-101l306 740h102zM396 574q0 -74 -53 -127
t-127 -53t-127 53t-53 127q0 75 52.5 128t127.5 53t127.5 -53t52.5 -128zM1111 166q0 29 -20 49.5t-49 20.5t-49.5 -20.5t-20.5 -49.5q0 -28 21 -49t49 -21t48.5 20.5t20.5 49.5zM711 166q0 29 -20 49.5t-49 20.5t-49.5 -20.5t-20.5 -49.5q0 -28 21 -49t49 -21t48.5 20.5
t20.5 49.5zM285 575q0 29 -20.5 49t-48.5 20q-29 0 -49 -20.5t-20 -49.5q0 -28 20.5 -48.5t48.5 -20.5t48.5 20.5t20.5 49.5z" />
    <glyph glyph-name="guilsinglleft" unicode="&#x2039;" horiz-adv-x="240" 
d="M190 108l-140 131v101l140 129v-123l-68 -57l68 -58v-123z" />
    <glyph glyph-name="guilsinglright" unicode="&#x203a;" horiz-adv-x="240" 
d="M190 239l-140 -131v123l68 58l-68 57v123l140 -129v-101z" />
    <glyph glyph-name="fraction" unicode="&#x2044;" horiz-adv-x="160" 
d="M282 740l-307 -740h-98l306 740h99z" />
    <glyph glyph-name="Euro" unicode="&#x20ac;" 
d="M541 194q-16 -104 -66 -152q-58 -56 -155 -56q-109 0 -172 76q-48 57 -65 173h-83l34 95h41v40v15h-75l34 95h48q17 127 63 186q67 88 178 88q95 0 154 -61q50 -54 61 -145h-125q-9 42 -26 57q-23 23 -64 23q-59 0 -86 -48q-16 -27 -24 -100h272l-34 -95h-243v-15v-40
h223l-35 -95h-180q9 -57 21 -76q26 -47 88 -47q46 0 69 26q14 15 23 56h124z" />
    <glyph glyph-name="litre" unicode="&#x2113;" horiz-adv-x="499" 
d="M378 127l40 -72q-70 -70 -143 -70q-59 0 -97 38q-42 43 -42 129v64l-44 -48l-45 62l89 94v209q0 94 39 144t105 50q58 0 86 -37t28 -83q0 -67 -29.5 -128.5t-84.5 -130.5q-4 -5 -15 -17.5t-15 -17.5v-154q0 -82 49 -82q33 0 79 50zM312 596q0 41 -24 41q-38 0 -38 -91
v-115q62 85 62 165z" />
    <glyph glyph-name="trademark" unicode="&#x2122;" horiz-adv-x="1000" 
d="M821 296h-94v306h-2l-109 -306h-78l-109 306h-2v-306h-94v444h126l119 -322l118 322h125v-444zM274 657h-86v-361h-94v361h-85v83h265v-83z" />
    <glyph glyph-name="Omega" unicode="&#x2126;" horiz-adv-x="712" 
d="M664 0h-254v97q126 116 126 276q0 104 -46.5 167.5t-131.5 63.5q-82 0 -132.5 -64.5t-50.5 -168.5q0 -161 127 -274v-97h-254v101h131q-133 114 -133 291q0 138 88 229t226 91q143 0 224 -88.5t81 -229.5q0 -177 -133 -293h132v-101z" />
    <glyph glyph-name="estimated" unicode="&#x212e;" horiz-adv-x="662" 
d="M607 288h-444v-198q65 -65 157 -65q134 0 213 131l36 -22q-49 -72 -106.5 -109t-142.5 -37q-126 0 -203 86t-77 214q0 129 76.5 214.5t204.5 85.5q130 0 206 -85t80 -215zM480 325v160q-66 66 -160 66t-157 -64v-162h317z" />
    <glyph glyph-name="onethird" unicode="&#x2153;" horiz-adv-x="746" 
d="M176 296h-96v358h-55v86h151v-444zM515 740l-307 -740h-98l306 740h99zM716 141q0 -66 -48 -108t-114 -42t-110.5 41.5t-47.5 106.5h96q2 -27 20 -44.5t45 -17.5t45 18t18 45q0 42 -26 54.5t-73 12.5v86h18.5t16.5 2t16.5 5.5t9.5 11.5t5 20q0 35 -34 35q-28 0 -28 -36
h-96q3 54 37.5 88t88.5 34q51 0 89.5 -35.5t38.5 -86.5q0 -48 -34 -76q32 -14 49.5 -45.5t17.5 -68.5z" />
    <glyph glyph-name="twothirds" unicode="&#x2154;" horiz-adv-x="881" 
d="M329 296h-304v81l159 147q49 45 49 80q0 26 -16.5 42.5t-42.5 16.5q-58 0 -58 -80h-95q-1 6 -1 18q0 63 45.5 105.5t108.5 42.5t109 -42t46 -105q0 -75 -87 -150l-80 -70h167v-86zM650 740l-307 -740h-98l306 740h99zM851 141q0 -66 -47.5 -108t-114.5 -42
q-66 0 -110.5 41.5t-47.5 106.5h96q2 -27 20 -44.5t45 -17.5t45 18t18 45q0 42 -26 54.5t-73 12.5v86h18.5t16.5 2t16.5 5.5t9.5 11.5t5 20q0 35 -34 35q-28 0 -28 -36h-96q3 54 37.5 88t88.5 34q51 0 89.5 -35.5t38.5 -86.5q0 -48 -34 -76q32 -14 49.5 -45.5t17.5 -68.5z
" />
    <glyph glyph-name="oneeighth" unicode="&#x215b;" horiz-adv-x="758" 
d="M176 296h-96v358h-55v86h151v-444zM515 740l-307 -740h-98l306 740h99zM728 136q0 -62 -47 -103.5t-113 -41.5q-67 0 -114.5 41.5t-47.5 102.5q0 71 61 110q-38 32 -38 80q0 54 41 91t98 37t97 -37t40 -91q0 -49 -39 -81q62 -38 62 -108zM635 137q0 29 -18.5 47t-49.5 18
q-29 0 -48 -18.5t-19 -46.5q0 -25 18.5 -42.5t48.5 -17.5q31 0 49.5 18t18.5 42zM617 328q0 18 -12.5 30.5t-36.5 12.5t-37.5 -13t-13.5 -33t13.5 -32.5t36.5 -12.5q24 0 37 13.5t13 34.5z" />
    <glyph glyph-name="threeeighths" unicode="&#x215c;" horiz-adv-x="892" 
d="M338 437q0 -66 -48 -108t-114 -42t-110.5 41.5t-47.5 106.5h96q2 -27 20 -44.5t45 -17.5t45 18t18 45q0 42 -26 54.5t-73 12.5v86h18.5t16.5 2t16.5 5.5t9.5 11.5t5 20q0 35 -34 35q-28 0 -28 -36h-96q3 54 37.5 88t88.5 34q51 0 89.5 -35.5t38.5 -86.5q0 -48 -34 -76
q32 -14 49.5 -45.5t17.5 -68.5zM649 740l-307 -740h-98l306 740h99zM862 136q0 -62 -47 -103.5t-113 -41.5q-67 0 -114.5 41.5t-47.5 102.5q0 71 61 110q-38 32 -38 80q0 54 41 91t98 37t97 -37t40 -91q0 -49 -39 -81q62 -38 62 -108zM769 137q0 29 -18.5 47t-49.5 18
q-29 0 -48 -18.5t-19 -46.5q0 -25 18.5 -42.5t48.5 -17.5q31 0 49.5 18t18.5 42zM751 328q0 18 -12.5 30.5t-36.5 12.5t-37.5 -13t-13.5 -33t13.5 -32.5t36.5 -12.5q24 0 37 13.5t13 34.5z" />
    <glyph glyph-name="fiveeighths" unicode="&#x215d;" horiz-adv-x="892" 
d="M341 450q0 -71 -45.5 -117t-116.5 -46q-64 0 -109 40.5t-54 106.5h93q14 -61 69 -61q33 0 50 21t17 52q0 28 -17 48.5t-50 20.5q-40 0 -66 -32l-77 18l42 239h224v-86h-155l-12 -72q26 19 62 19q66 0 105.5 -43t39.5 -108zM649 740l-307 -740h-98l306 740h99zM862 136
q0 -62 -47 -103.5t-113 -41.5q-67 0 -114.5 41.5t-47.5 102.5q0 71 61 110q-38 32 -38 80q0 54 41 91t98 37t97 -37t40 -91q0 -49 -39 -81q62 -38 62 -108zM769 137q0 29 -18.5 47t-49.5 18q-29 0 -48 -18.5t-19 -46.5q0 -25 18.5 -42.5t48.5 -17.5q31 0 49.5 18t18.5 42z
M751 328q0 18 -12.5 30.5t-36.5 12.5t-37.5 -13t-13.5 -33t13.5 -32.5t36.5 -12.5q24 0 37 13.5t13 34.5z" />
    <glyph glyph-name="seveneighths" unicode="&#x215e;" horiz-adv-x="777" 
d="M285 657l-158 -361h-103l160 357h-176v87h277v-83zM534 740l-307 -740h-98l306 740h99zM747 136q0 -62 -47 -103.5t-113 -41.5q-67 0 -114.5 41.5t-47.5 102.5q0 71 61 110q-38 32 -38 80q0 54 41 91t98 37t97 -37t40 -91q0 -49 -39 -81q62 -38 62 -108zM654 137
q0 29 -18.5 47t-49.5 18q-29 0 -48 -18.5t-19 -46.5q0 -25 18.5 -42.5t48.5 -17.5q31 0 49.5 18t18.5 42zM636 328q0 18 -12.5 30.5t-36.5 12.5t-37.5 -13t-13.5 -33t13.5 -32.5t36.5 -12.5q24 0 37 13.5t13 34.5z" />
    <glyph glyph-name="partialdiff" unicode="&#x2202;" horiz-adv-x="582" 
d="M547 472q0 -91 -25 -188q-32 -125 -105.5 -210t-178.5 -85q-88 0 -142 55t-54 144q0 142 80.5 227t183.5 85q76 0 121 -47q1 11 1 35q0 70 -31.5 108t-87.5 38q-45 0 -98 -31l-29 86q58 39 141 39q103 0 163.5 -67t60.5 -189zM240 86q58 0 104.5 72.5t65.5 184.5
q-23 67 -90 67q-63 0 -110 -66.5t-47 -161.5q0 -43 21 -69.5t56 -26.5z" />
    <glyph glyph-name="Delta" unicode="&#x2206;" horiz-adv-x="616" 
d="M605 0h-594v55l223 645h150l221 -645v-55zM461 102l-145 431q-7 22 -10 34h-2q-3 -14 -10 -33l-145 -432h312z" />
    <glyph glyph-name="product" unicode="&#x220f;" horiz-adv-x="721" 
d="M645 -224h-123v818h-322v-818h-123v924h568v-924z" />
    <glyph glyph-name="summation" unicode="&#x2211;" horiz-adv-x="633" 
d="M587 -224h-567v62l297 404l-277 390v68h525v-101h-370l252 -354l-269 -368h409v-101z" />
    <glyph glyph-name="minus" unicode="&#x2212;" horiz-adv-x="600" 
d="M552 193h-504v120h504v-120z" />
    <glyph glyph-name="uni2215" unicode="&#x2215;" horiz-adv-x="160" 
d="M282 740l-307 -740h-98l306 740h99z" />
    <glyph glyph-name="uni2219" unicode="&#x2219;" horiz-adv-x="280" 
d="M206 279h-133v133h133v-133z" />
    <glyph glyph-name="radical" unicode="&#x221a;" horiz-adv-x="542" 
d="M543 728l-184 -740h-112l-126 310l-51 -32l-43 68l165 105l107 -267l138 556h106z" />
    <glyph glyph-name="infinity" unicode="&#x221e;" horiz-adv-x="790" 
d="M741 296q0 -76 -49.5 -128.5t-127.5 -52.5q-98 0 -174 91q-74 -91 -170 -91q-76 0 -128 49t-52 129q0 81 51.5 130t126.5 49q94 0 174 -88q65 88 169 88q79 0 129.5 -49t50.5 -127zM627 295q0 32 -18.5 53t-52.5 21q-60 0 -108 -74q54 -78 108 -78q34 0 52.5 22.5
t18.5 55.5zM226 217q53 0 106 77q-49 75 -107 75q-34 0 -52.5 -22t-18.5 -55q0 -32 20.5 -53.5t51.5 -21.5z" />
    <glyph glyph-name="integral" unicode="&#x222b;" horiz-adv-x="492" 
d="M440 729l-26 -88q-28 10 -50 10q-64 0 -64 -82v-606q0 -87 -43.5 -137t-127.5 -50q-51 0 -88 16l24 92q26 -12 49 -12q65 0 65 81v607q0 87 43.5 137.5t128.5 50.5q53 0 89 -19z" />
    <glyph glyph-name="approxequal" unicode="&#x2248;" horiz-adv-x="600" 
d="M403 95q-64 0 -117 32q-54 30 -87 30q-40 0 -86 -71l-80 91q35 48 72 73.5t90 25.5q62 0 116 -31q55 -31 89 -31q39 0 86 71l80 -90q-36 -51 -73 -75.5t-90 -24.5zM403 323q-64 0 -117 32q-54 30 -87 30q-40 0 -86 -71l-80 91q35 48 72 73.5t90 25.5q62 0 116 -31
q55 -31 89 -31q39 0 86 71l80 -90q-36 -51 -73 -75.5t-90 -24.5z" />
    <glyph glyph-name="notequal" unicode="&#x2260;" horiz-adv-x="600" 
d="M552 81h-275l-50 -104h-133l50 104h-96v120h155l50 104h-205v120h264l61 126h133l-61 -126h107v-120h-166l-50 -104h216v-120z" />
    <glyph glyph-name="lessequal" unicode="&#x2264;" horiz-adv-x="600" 
d="M552 152l-504 188v103l504 187v-126l-335 -115l335 -113v-124zM552 0h-504v120h504v-120z" />
    <glyph glyph-name="greaterequal" unicode="&#x2265;" horiz-adv-x="600" 
d="M552 340l-504 -188v124l335 113l-335 115v126l504 -187v-103zM552 0h-504v120h504v-120z" />
    <glyph glyph-name="lozenge" unicode="&#x25ca;" horiz-adv-x="600" 
d="M553 351l-202 -351h-103l-201 348l202 352h102zM432 350l-132 229l-133 -229l132 -228z" />
    <glyph glyph-name="A.alt01" unicode="&#xe000;" horiz-adv-x="715" 
d="M645 0h-137v191h-210l-132 -191h-166l520 740h125v-740zM508 319v177h-2l-120 -177h122z" />
    <glyph glyph-name="Aacute.alt01" unicode="&#xe001;" horiz-adv-x="715" 
d="M645 0h-137v191h-210l-132 -191h-166l520 740h125v-740zM508 319v177h-2l-120 -177h122zM739 885l-226 -125l-53 92l222 135z" />
    <glyph glyph-name="Agrave.alt01" unicode="&#xe002;" horiz-adv-x="715" 
d="M645 0h-137v191h-210l-132 -191h-166l520 740h125v-740zM508 319v177h-2l-120 -177h122zM666 856l-53 -92l-226 125l57 102z" />
    <glyph glyph-name="Acircumflex.alt01" unicode="&#xe003;" horiz-adv-x="715" 
d="M645 0h-137v191h-210l-132 -191h-166l520 740h125v-740zM508 319v177h-2l-120 -177h122zM782 798h-131l-80 67l-80 -67h-133l170 154h88z" />
    <glyph glyph-name="Adieresis.alt01" unicode="&#xe004;" horiz-adv-x="715" 
d="M645 0h-137v191h-210l-132 -191h-166l520 740h125v-740zM508 319v177h-2l-120 -177h122zM751 801h-126v142h126v-142zM535 801h-126v142h126v-142z" />
    <glyph glyph-name="Atilde.alt01" unicode="&#xe005;" horiz-adv-x="715" 
d="M645 0h-137v191h-210l-132 -191h-166l520 740h125v-740zM508 319v177h-2l-120 -177h122zM753 847q-53 -37 -109 -37q-28 0 -82 14t-81 14q-42 0 -77 -26l-46 90q50 36 106 36q29 0 83 -14t82 -14q48 0 78 25z" />
    <glyph glyph-name="Aring.alt01" unicode="&#xe006;" horiz-adv-x="715" 
d="M645 0h-137v191h-210l-132 -191h-166l520 740h125v-740zM508 319v177h-2l-120 -177h122zM685 881q0 -48 -34.5 -82.5t-82.5 -34.5t-82.5 34.5t-34.5 82.5q0 49 34.5 83t83.5 34q48 0 82 -34.5t34 -82.5zM617 882q0 21 -14.5 35t-35.5 14q-20 0 -34 -15t-14 -35t14.5 -34
t34.5 -14t34.5 14.5t14.5 34.5z" />
    <glyph glyph-name="A.alt02" unicode="&#xe00a;" horiz-adv-x="706" 
d="M706 0h-166l-132 191h-210v-191h-137v740h125zM320 319l-120 177h-2v-177h122z" />
    <glyph glyph-name="Aacute.alt02" unicode="&#xe00b;" horiz-adv-x="706" 
d="M706 0h-166l-132 191h-210v-191h-137v740h125zM320 319l-120 177h-2v-177h122zM320 886l-226 -125l-53 92l222 135z" />
    <glyph glyph-name="Agrave.alt02" unicode="&#xe00c;" horiz-adv-x="706" 
d="M706 0h-166l-132 191h-210v-191h-137v740h125zM320 319l-120 177h-2v-177h122zM266 850l-53 -92l-226 125l57 102z" />
    <glyph glyph-name="Acircumflex.alt02" unicode="&#xe00d;" horiz-adv-x="706" 
d="M706 0h-166l-132 191h-210v-191h-137v740h125zM320 319l-120 177h-2v-177h122zM353 798h-131l-80 67l-80 -67h-133l170 154h88z" />
    <glyph glyph-name="Adieresis.alt02" unicode="&#xe00e;" horiz-adv-x="706" 
d="M706 0h-166l-132 191h-210v-191h-137v740h125zM320 319l-120 177h-2v-177h122zM298 801h-126v142h126v-142zM82 801h-126v142h126v-142z" />
    <glyph glyph-name="Atilde.alt02" unicode="&#xe00f;" horiz-adv-x="706" 
d="M706 0h-166l-132 191h-210v-191h-137v740h125zM320 319l-120 177h-2v-177h122zM335 846q-51 -38 -108 -38q-28 0 -82.5 14.5t-81.5 14.5q-43 0 -76 -26l-46 90q51 36 106 36q28 0 82.5 -14t82.5 -14q49 0 77 24z" />
    <glyph glyph-name="Aring.alt02" unicode="&#xe010;" horiz-adv-x="706" 
d="M706 0h-166l-132 191h-210v-191h-137v740h125zM320 319l-120 177h-2v-177h122zM245 881q0 -48 -34.5 -82.5t-82.5 -34.5t-82.5 34.5t-34.5 82.5q0 49 34.5 83t83.5 34q48 0 82 -34.5t34 -82.5zM177 882q0 21 -14.5 35t-35.5 14q-20 0 -34 -15t-14 -35t14.5 -34t34.5 -14
t34.5 14.5t14.5 34.5z" />
    <glyph glyph-name="A.alt03" unicode="&#xe014;" horiz-adv-x="867" 
d="M796 0h-137v94h-2q-83 -109 -254 -109q-156 0 -263 111.5t-107 271.5q0 166 111 276.5t257 110.5q172 0 256 -112h2v97h137v-740zM670 369q0 106 -73 182t-177 76q-107 0 -178.5 -74.5t-71.5 -183.5q0 -106 70 -181t180 -75t180 75t70 181z" />
    <glyph glyph-name="Aacute.alt03" unicode="&#xe015;" horiz-adv-x="867" 
d="M796 0h-137v94h-2q-83 -109 -254 -109q-156 0 -263 111.5t-107 271.5q0 166 111 276.5t257 110.5q172 0 256 -112h2v97h137v-740zM670 369q0 106 -73 182t-177 76q-107 0 -178.5 -74.5t-71.5 -183.5q0 -106 70 -181t180 -75t180 75t70 181zM582 901l-226 -125l-53 92
l222 135z" />
    <glyph glyph-name="Agrave.alt03" unicode="&#xe016;" horiz-adv-x="867" 
d="M796 0h-137v94h-2q-83 -109 -254 -109q-156 0 -263 111.5t-107 271.5q0 166 111 276.5t257 110.5q172 0 256 -112h2v97h137v-740zM670 369q0 106 -73 182t-177 76q-107 0 -178.5 -74.5t-71.5 -183.5q0 -106 70 -181t180 -75t180 75t70 181zM520 865l-53 -92l-226 125
l57 102z" />
    <glyph glyph-name="Acircumflex.alt03" unicode="&#xe017;" horiz-adv-x="867" 
d="M796 0h-137v94h-2q-83 -109 -254 -109q-156 0 -263 111.5t-107 271.5q0 166 111 276.5t257 110.5q172 0 256 -112h2v97h137v-740zM670 369q0 106 -73 182t-177 76q-107 0 -178.5 -74.5t-71.5 -183.5q0 -106 70 -181t180 -75t180 75t70 181zM627 798h-131l-80 67l-80 -67
h-133l170 154h88z" />
    <glyph glyph-name="Adieresis.alt03" unicode="&#xe018;" horiz-adv-x="867" 
d="M796 0h-137v94h-2q-83 -109 -254 -109q-156 0 -263 111.5t-107 271.5q0 166 111 276.5t257 110.5q172 0 256 -112h2v97h137v-740zM670 369q0 106 -73 182t-177 76q-107 0 -178.5 -74.5t-71.5 -183.5q0 -106 70 -181t180 -75t180 75t70 181zM601 801h-126v142h126v-142z
M385 801h-126v142h126v-142z" />
    <glyph glyph-name="Atilde.alt03" unicode="&#xe019;" horiz-adv-x="867" 
d="M796 0h-137v94h-2q-83 -109 -254 -109q-156 0 -263 111.5t-107 271.5q0 166 111 276.5t257 110.5q172 0 256 -112h2v97h137v-740zM670 369q0 106 -73 182t-177 76q-107 0 -178.5 -74.5t-71.5 -183.5q0 -106 70 -181t180 -75t180 75t70 181zM610 846q-51 -38 -108 -38
q-28 0 -82.5 14.5t-81.5 14.5q-43 0 -76 -26l-46 90q51 36 106 36q28 0 82 -14t83 -14q49 0 77 24z" />
    <glyph glyph-name="Aring.alt03" unicode="&#xe01a;" horiz-adv-x="867" 
d="M796 0h-137v94h-2q-83 -109 -254 -109q-156 0 -263 111.5t-107 271.5q0 166 111 276.5t257 110.5q172 0 256 -112h2v97h137v-740zM670 369q0 106 -73 182t-177 76q-107 0 -178.5 -74.5t-71.5 -183.5q0 -106 70 -181t180 -75t180 75t70 181zM514 889q0 -44 -32 -75.5
t-76 -31.5t-75.5 32t-31.5 75q0 45 31 76.5t76 31.5t76.5 -31.5t31.5 -76.5zM447 889q0 17 -12 29t-29 12t-28.5 -12t-11.5 -29t12 -28.5t28 -11.5q17 0 29 11.5t12 28.5z" />
    <glyph glyph-name="C.alt01" unicode="&#xe01e;" horiz-adv-x="577" 
d="M543 5q-58 -20 -126 -20q-75 0 -143 25.5t-122 72.5t-86 122t-32 167q0 116 54 205t140.5 133.5t188.5 44.5q73 0 126 -20v-142q-51 34 -125 34q-109 0 -178 -72.5t-69 -185.5q0 -114 70 -185t173 -71q82 0 129 35v-143z" />
    <glyph glyph-name="Ccedilla.alt01" unicode="&#xe01f;" horiz-adv-x="577" 
d="M543 5q-58 -20 -126 -20q-19 0 -29 1l-18 -41q14 2 25 2q38 0 65.5 -27t27.5 -73t-28.5 -72t-71.5 -26q-46 0 -73 29.5t-27 57.5h53q3 -17 16 -27t31 -10q20 0 33 13.5t13 34.5t-13.5 35.5t-33.5 14.5q-31 0 -43 -22l-49 19l43 98q-132 25 -218 124t-86 256q0 116 54 205
t140.5 133.5t188.5 44.5q73 0 126 -20v-142q-51 34 -125 34q-109 0 -178 -72.5t-69 -185.5q0 -114 70 -185t173 -71q82 0 129 35v-143z" />
    <glyph glyph-name="E.alt01" unicode="&#xe024;" horiz-adv-x="577" 
d="M543 5q-58 -20 -126 -20q-163 0 -273 106t-110 281q0 169 110.5 276t272.5 107q73 0 126 -20v-142q-48 34 -125 34q-92 0 -158 -54.5t-82 -141.5h353v-128h-353q20 -88 85 -139t151 -51q83 0 129 35v-143z" />
    <glyph glyph-name="Eacute.alt01" unicode="&#xe025;" horiz-adv-x="577" 
d="M543 5q-58 -20 -126 -20q-163 0 -273 106t-110 281q0 169 110.5 276t272.5 107q73 0 126 -20v-142q-48 34 -125 34q-92 0 -158 -54.5t-82 -141.5h353v-128h-353q20 -88 85 -139t151 -51q83 0 129 35v-143zM532 904l-226 -125l-53 92l222 135z" />
    <glyph glyph-name="Egrave.alt01" unicode="&#xe026;" horiz-adv-x="577" 
d="M543 5q-58 -20 -126 -20q-163 0 -273 106t-110 281q0 169 110.5 276t272.5 107q73 0 126 -20v-142q-48 34 -125 34q-92 0 -158 -54.5t-82 -141.5h353v-128h-353q20 -88 85 -139t151 -51q83 0 129 35v-143zM487 880l-53 -92l-226 125l57 102z" />
    <glyph glyph-name="Ecircumflex.alt01" unicode="&#xe027;" horiz-adv-x="577" 
d="M543 5q-58 -20 -126 -20q-163 0 -273 106t-110 281q0 169 110.5 276t272.5 107q73 0 126 -20v-142q-48 34 -125 34q-92 0 -158 -54.5t-82 -141.5h353v-128h-353q20 -88 85 -139t151 -51q83 0 129 35v-143zM568 804h-131l-80 67l-80 -67h-132l170 154h87z" />
    <glyph glyph-name="Edieresis.alt01" unicode="&#xe028;" horiz-adv-x="577" 
d="M543 5q-58 -20 -126 -20q-163 0 -273 106t-110 281q0 169 110.5 276t272.5 107q73 0 126 -20v-142q-48 34 -125 34q-92 0 -158 -54.5t-82 -141.5h353v-128h-353q20 -88 85 -139t151 -51q83 0 129 35v-143zM535 807h-127v143h127v-143zM318 807h-126v143h126v-143z" />
    <glyph glyph-name="E.alt02" unicode="&#xe02e;" horiz-adv-x="840" 
d="M807 368q0 -41 -4 -65h-624q19 -80 86.5 -135t154.5 -55q68 0 124.5 34.5t87.5 86.5h151q-42 -110 -140.5 -179.5t-222.5 -69.5q-163 0 -275 113t-112 271q0 160 112.5 273t273.5 113q164 0 276 -114t112 -273zM662 431q-15 74 -80.5 135t-161.5 61q-92 0 -159.5 -59.5
t-83.5 -136.5h485z" />
    <glyph glyph-name="Eacute.alt02" unicode="&#xe02f;" horiz-adv-x="840" 
d="M807 368q0 -41 -4 -65h-624q19 -80 86.5 -135t154.5 -55q68 0 124.5 34.5t87.5 86.5h151q-42 -110 -140.5 -179.5t-222.5 -69.5q-163 0 -275 113t-112 271q0 160 112.5 273t273.5 113q164 0 276 -114t112 -273zM662 431q-15 74 -80.5 135t-161.5 61q-92 0 -159.5 -59.5
t-83.5 -136.5h485zM575 899l-226 -125l-53 92l222 135z" />
    <glyph glyph-name="Egrave.alt02" unicode="&#xe030;" horiz-adv-x="840" 
d="M807 368q0 -41 -4 -65h-624q19 -80 86.5 -135t154.5 -55q68 0 124.5 34.5t87.5 86.5h151q-42 -110 -140.5 -179.5t-222.5 -69.5q-163 0 -275 113t-112 271q0 160 112.5 273t273.5 113q164 0 276 -114t112 -273zM662 431q-15 74 -80.5 135t-161.5 61q-92 0 -159.5 -59.5
t-83.5 -136.5h485zM519 875l-53 -92l-226 125l57 102z" />
    <glyph glyph-name="Ecircumflex.alt02" unicode="&#xe031;" horiz-adv-x="840" 
d="M807 368q0 -41 -4 -65h-624q19 -80 86.5 -135t154.5 -55q68 0 124.5 34.5t87.5 86.5h151q-42 -110 -140.5 -179.5t-222.5 -69.5q-163 0 -275 113t-112 271q0 160 112.5 273t273.5 113q164 0 276 -114t112 -273zM662 431q-15 74 -80.5 135t-161.5 61q-92 0 -159.5 -59.5
t-83.5 -136.5h485zM622 798h-131l-80 67l-80 -67h-133l170 154h88z" />
    <glyph glyph-name="Edieresis.alt02" unicode="&#xe032;" horiz-adv-x="840" 
d="M807 368q0 -41 -4 -65h-624q19 -80 86.5 -135t154.5 -55q68 0 124.5 34.5t87.5 86.5h151q-42 -110 -140.5 -179.5t-222.5 -69.5q-163 0 -275 113t-112 271q0 160 112.5 273t273.5 113q164 0 276 -114t112 -273zM662 431q-15 74 -80.5 135t-161.5 61q-92 0 -159.5 -59.5
t-83.5 -136.5h485zM585 801h-126v142h126v-142zM369 801h-126v142h126v-142z" />
    <glyph glyph-name="K.alt01" unicode="&#xe038;" horiz-adv-x="627" 
d="M627 0h-168l-180 280l-71 -92v-188h-137v740h137v-356h2l249 356h166l-262 -347z" />
    <glyph glyph-name="K.alt02" unicode="&#xe03a;" horiz-adv-x="631" 
d="M631 0h-168l-254 372l256 368h160l-264 -368zM208 0h-137v740h137v-740z" />
    <glyph glyph-name="M.alt01" unicode="&#xe03c;" horiz-adv-x="1175" 
d="M1105 0h-137v479h-2l-340 -479h-134v486h-2l-339 -486h-165l530 740h113v-511h2l367 511h107v-740z" />
    <glyph glyph-name="M.alt02" unicode="&#xe03d;" horiz-adv-x="1166" 
d="M1180 0h-165l-339 486h-2v-486h-134l-340 479h-2v-479h-137v740h107l367 -511h2v511h113z" />
    <glyph glyph-name="M.alt03" unicode="&#xe03e;" horiz-adv-x="1138" 
d="M1073 0h-137v427q0 101 -32.5 150.5t-109.5 49.5q-68 0 -111 -49.5t-43 -144.5v-433h-137v427q0 101 -32 150.5t-109 49.5q-68 0 -111 -49.5t-43 -144.5v-433h-137v740h133v-78h3q58 93 184 93q74 0 125 -33.5t78 -85.5h3q74 119 217 119q76 0 125.5 -27.5t85.5 -82.5
q48 -73 48 -200v-445z" />
    <glyph glyph-name="N.alt01" unicode="&#xe03f;" horiz-adv-x="732" 
d="M667 0h-137v427q0 200 -157 200q-69 0 -117 -50t-48 -144v-433h-137v740h133v-78h3q58 93 198 93q72 0 127 -30.5t87 -79.5q48 -73 48 -200v-445z" />
    <glyph glyph-name="Ntilde.alt01" unicode="&#xe040;" horiz-adv-x="732" 
d="M667 0h-137v427q0 200 -157 200q-69 0 -117 -50t-48 -144v-433h-137v740h133v-78h3q58 93 198 93q72 0 127 -30.5t87 -79.5q48 -73 48 -200v-445zM565 846q-51 -38 -108 -38q-28 0 -82.5 14.5t-81.5 14.5q-43 0 -76 -26l-46 90q51 36 106 36q29 0 83 -14t82 -14
q49 0 77 24z" />
    <glyph glyph-name="U.alt01" unicode="&#xe044;" horiz-adv-x="731" 
d="M661 0h-133v78h-3q-58 -93 -198 -93q-72 0 -127 30.5t-87 79.5q-48 73 -48 200v445h137v-427q0 -200 157 -200q69 0 117 50t48 144v433h137v-740z" />
    <glyph glyph-name="Uacute.alt01" unicode="&#xe045;" horiz-adv-x="731" 
d="M661 0h-133v78h-3q-58 -93 -198 -93q-72 0 -127 30.5t-87 79.5q-48 73 -48 200v445h137v-427q0 -200 157 -200q69 0 117 50t48 144v433h137v-740zM541 893l-226 -125l-53 92l222 135z" />
    <glyph glyph-name="Ugrave.alt01" unicode="&#xe046;" horiz-adv-x="731" 
d="M661 0h-133v78h-3q-58 -93 -198 -93q-72 0 -127 30.5t-87 79.5q-48 73 -48 200v445h137v-427q0 -200 157 -200q69 0 117 50t48 144v433h137v-740zM466 850l-53 -92l-226 125l57 102z" />
    <glyph glyph-name="Ucircumflex.alt01" unicode="&#xe047;" horiz-adv-x="731" 
d="M661 0h-133v78h-3q-58 -93 -198 -93q-72 0 -127 30.5t-87 79.5q-48 73 -48 200v445h137v-427q0 -200 157 -200q69 0 117 50t48 144v433h137v-740zM569 798h-131l-80 67l-80 -67h-133l170 154h88z" />
    <glyph glyph-name="Udieresis.alt01" unicode="&#xe048;" horiz-adv-x="731" 
d="M661 0h-133v78h-3q-58 -93 -198 -93q-72 0 -127 30.5t-87 79.5q-48 73 -48 200v445h137v-427q0 -200 157 -200q69 0 117 50t48 144v433h137v-740zM535 801h-126v142h126v-142zM319 801h-126v142h126v-142z" />
    <glyph glyph-name="V.alt02" unicode="&#xe04f;" horiz-adv-x="656" 
d="M711 740l-521 -740h-119v740h137v-487h2l332 487h169z" />
    <glyph glyph-name="V.alt01" unicode="&#xe050;" horiz-adv-x="655" 
d="M585 0h-119l-521 740h169l332 -487h2v487h137v-740z" />
    <glyph glyph-name="W.alt02" unicode="&#xe051;" horiz-adv-x="1125" 
d="M1180 740l-520 -740h-122v491h-2l-334 -491h-131v740h137v-504h2l343 504h122v-491h2l338 491h165z" />
    <glyph glyph-name="W.alt01" unicode="&#xe056;" horiz-adv-x="1124" 
d="M1054 0h-131l-334 491h-2v-491h-122l-520 740h165l338 -491h2v491h122l343 -504h2v504h137v-740z" />
    <glyph glyph-name="c.alt01" unicode="&#xe05b;" horiz-adv-x="495" 
d="M465 14q-20 -13 -60.5 -22.5t-82.5 -9.5q-118 0 -201.5 81.5t-83.5 214.5q0 136 85 216t200 80q86 0 143 -33v-152q-19 25 -52.5 44t-74.5 19q-80 0 -124 -49t-44 -125q0 -77 45.5 -125.5t121.5 -48.5q74 0 128 67v-157z" />
    <glyph glyph-name="ccedilla.alt01" unicode="&#xe05c;" horiz-adv-x="495" 
d="M465 14q-20 -13 -59.5 -22.5t-80.5 -9.5h-9l-16 -37q14 2 25 2q38 0 65.5 -27t27.5 -73t-28.5 -72t-71.5 -26q-46 0 -73 29.5t-27 57.5h53q3 -17 16 -27t31 -10q20 0 33 13.5t13 34.5t-13.5 35.5t-33.5 14.5q-31 0 -43 -22l-49 19l41 93q-99 20 -164 97.5t-65 193.5
q0 136 85 216t200 80q86 0 143 -33v-152q-19 25 -52.5 44t-74.5 19q-80 0 -124 -49t-44 -125q0 -77 45.5 -125.5t121.5 -48.5q74 0 128 67v-157z" />
    <glyph glyph-name="e.alt01" unicode="&#xe061;" horiz-adv-x="610" 
d="M580 411l-347 -279q36 -28 92 -28q82 0 155 81v-154q-63 -49 -158 -49q-118 0 -204.5 83.5t-86.5 212.5q0 132 86 215.5t205 83.5q98 0 165.5 -53t92.5 -113zM420 420q-32 35 -92 35q-74 0 -120 -50.5t-46 -118.5q0 -29 8 -67z" />
    <glyph glyph-name="eacute.alt01" unicode="&#xe062;" horiz-adv-x="610" 
d="M580 411l-347 -279q36 -28 92 -28q82 0 155 81v-154q-63 -49 -158 -49q-118 0 -204.5 83.5t-86.5 212.5q0 132 86 215.5t205 83.5q98 0 165.5 -53t92.5 -113zM420 420q-32 35 -92 35q-74 0 -120 -50.5t-46 -118.5q0 -29 8 -67zM452 719l-226 -125l-53 92l222 135z" />
    <glyph glyph-name="egrave.alt01" unicode="&#xe063;" horiz-adv-x="610" 
d="M580 411l-347 -279q36 -28 92 -28q82 0 155 81v-154q-63 -49 -158 -49q-118 0 -204.5 83.5t-86.5 212.5q0 132 86 215.5t205 83.5q98 0 165.5 -53t92.5 -113zM420 420q-32 35 -92 35q-74 0 -120 -50.5t-46 -118.5q0 -29 8 -67zM418 695l-53 -92l-226 125l57 102z" />
    <glyph glyph-name="ecircumflex.alt01" unicode="&#xe064;" horiz-adv-x="610" 
d="M580 411l-347 -279q36 -28 92 -28q82 0 155 81v-154q-63 -49 -158 -49q-118 0 -204.5 83.5t-86.5 212.5q0 132 86 215.5t205 83.5q98 0 165.5 -53t92.5 -113zM420 420q-32 35 -92 35q-74 0 -120 -50.5t-46 -118.5q0 -29 8 -67zM519 632h-131l-80 67l-79 -67h-133l170 154
h88z" />
    <glyph glyph-name="edieresis.alt01" unicode="&#xe065;" horiz-adv-x="610" 
d="M580 411l-347 -279q36 -28 92 -28q82 0 155 81v-154q-63 -49 -158 -49q-118 0 -204.5 83.5t-86.5 212.5q0 132 86 215.5t205 83.5q98 0 165.5 -53t92.5 -113zM420 420q-32 35 -92 35q-74 0 -120 -50.5t-46 -118.5q0 -29 8 -67zM473 635h-127v142h127v-142zM256 635h-126
v142h126v-142z" />
    <glyph glyph-name="f.alt01" unicode="&#xe06b;" horiz-adv-x="248" 
d="M280 609q-55 0 -71 -20q-14 -18 -14 -45v-544h-133v437h-47v118h47q6 79 57 132t124 53h37v-131z" />
    <glyph glyph-name="f.alt02" unicode="&#xe06c;" horiz-adv-x="272" 
d="M265 437h-78v-437h-133v549q0 73 51.5 132t122.5 59h37v-131q-31 0 -43.5 -4t-21.5 -16q-11 -14 -13 -34h78v-118z" />
    <glyph glyph-name="k.alt01" unicode="&#xe06d;" horiz-adv-x="595" 
d="M586 0h-163l-147 203l-63 -80v-123h-133v740h133v-446h2l182 261h161l-196 -245z" />
    <glyph glyph-name="k.alt02" unicode="&#xe06f;" horiz-adv-x="574" 
d="M215 287l171 268h153l-184 -262l210 -293h-168zM213 740v-740h-133v740h133z" />
    <glyph glyph-name="t.alt01" unicode="&#xe071;" horiz-adv-x="267" 
d="M234 0h-133v437h-80v118h80v185h133v-740z" />
    <glyph glyph-name="t.alt02" unicode="&#xe075;" horiz-adv-x="287" 
d="M266 437h-80v-437h-133v740h133v-185h80v-118z" />
    <glyph glyph-name="v.alt02" unicode="&#xe079;" horiz-adv-x="523" 
d="M565 555l-396 -555h-116v555h133v-315h2l219 315h158z" />
    <glyph glyph-name="v.alt01" unicode="&#xe07a;" horiz-adv-x="523" 
d="M470 0h-116l-396 555h158l219 -315h2v315h133v-555z" />
    <glyph glyph-name="w.alt02" unicode="&#xe07b;" horiz-adv-x="870" 
d="M912 555l-396 -555h-116v324l-231 -324h-116v555h133v-316h2l219 316h126v-315h2l219 315h158z" />
    <glyph glyph-name="w.alt01" unicode="&#xe080;" horiz-adv-x="870" 
d="M817 0h-116l-231 324v-324h-116l-396 555h158l219 -315h2v315h126l219 -316h2v316h133v-555z" />
    <glyph glyph-name="y.alt01" unicode="&#xe085;" horiz-adv-x="532" 
d="M574 555l-515 -740h-158l152 217v523h133v-340h2l228 340h158z" />
    <glyph glyph-name="yacute.alt01" unicode="&#xe086;" horiz-adv-x="532" 
d="M574 555l-515 -740h-158l152 217v523h133v-340h2l228 340h158zM508 719l-226 -125l-53 92l222 135z" />
    <glyph glyph-name="ydieresis.alt01" unicode="&#xe087;" horiz-adv-x="532" 
d="M574 555l-515 -740h-158l152 217v523h133v-340h2l228 340h158zM469 635h-127v142h127v-142zM252 635h-126v142h126v-142z" />
    <glyph glyph-name="C_A" unicode="&#xe08a;" horiz-adv-x="1012" 
d="M942 0h-137v247h-172l-91 -119q55 15 96 78h153q-17 -38 -45.5 -74t-72 -70.5t-107 -55.5t-137.5 -21q-166 0 -278.5 115.5t-112.5 271.5q0 157 110 270t273 113q177 0 291 -107l-81 -109q-86 88 -209 88q-105 0 -176 -74.5t-71 -180.5q0 -92 58.5 -164t143.5 -91
l451 623h114v-740zM805 364v132h-2l-90 -132h92z" />
    <glyph glyph-name="C_O.alt01" unicode="&#xe0a1;" horiz-adv-x="780" 
d="M641 370q0 -95 -66 -165t-158 -70q-93 0 -158.5 68.5t-65.5 166.5q0 95 66.5 165t157.5 70q93 0 158.5 -69t65.5 -166zM766 529h-156q-80 98 -194 98q-102 0 -173.5 -77t-71.5 -179q0 -107 72 -182.5t173 -75.5q66 0 114.5 29t75.5 64h156q-45 -105 -142.5 -163
t-202.5 -58q-161 0 -272 115t-111 272t110 270t273 113q118 0 212 -63t137 -163zM522 368q0 49 -31 84.5t-74 35.5q-47 0 -76 -34.5t-29 -84.5q0 -49 30 -84t75 -35q44 0 74.5 35t30.5 83z" />
    <glyph glyph-name="C_O" unicode="&#xe0a2;" horiz-adv-x="1181" 
d="M1148 368q0 -159 -113.5 -271t-273.5 -112q-93 0 -173 40q-80 -40 -168 -40q-159 0 -272.5 115t-113.5 273q0 155 112 268.5t271 113.5q91 0 172 -40q80 40 172 40q159 0 273 -112t114 -275zM1011 369q0 107 -73 182.5t-177 75.5q-27 0 -52 -6q36 -42 57 -92h-156
q-16 17 -24 25q-75 -77 -75 -185q0 -105 74 -182q13 13 18 19h159q-21 -48 -54 -87q26 -6 53 -6q105 0 177.5 76t72.5 180zM467 118q-93 107 -93 250q0 146 93 253q-25 6 -55 6q-93 0 -167 -74t-74 -182q0 -104 73.5 -181t172.5 -77q25 0 50 5z" />
    <glyph glyph-name="D_E" unicode="&#xe0ba;" horiz-adv-x="1096" 
d="M1035 0h-398v240h-2q-44 -131 -155 -192q-86 -48 -246 -48h-171v740h168q204 0 304 -86q68 -59 100 -156h2v242h398v-128h-261v-181h250v-128h-250v-175h261v-128zM520 368q0 111 -79 182q-69 62 -215 62h-26v-484h29q61 0 100 7t80 29q53 29 82 85.5t29 118.5z" />
    <glyph glyph-name="D_I" unicode="&#xe0c8;" horiz-adv-x="852" 
d="M782 0h-137v240h-2q-44 -131 -155 -192q-86 -48 -246 -48h-171v740h168q204 0 304 -86q68 -59 100 -156h2v242h137v-740zM528 368q0 111 -79 182q-69 62 -215 62h-26v-484h29q61 0 100 7t80 29q53 29 82 85.5t29 118.5z" />
    <glyph glyph-name="E_A" unicode="&#xe0d5;" horiz-adv-x="930" 
d="M860 0h-137v191h-210l-44 -63h67v-128h-465v740h371v-128h-234v-171h226v-128h-226v-185h97l431 612h124v-740zM723 319v177h-2l-120 -177h122z" />
    <glyph glyph-name="F_A" unicode="&#xe0de;" horiz-adv-x="900" 
d="M830 0h-137v232h-182l-160 -232h-280v740h386v-128h-249v-252h230l267 380h125v-740zM693 360v136h-2l-93 -136h95zM348 232h-140v-199z" />
    <glyph glyph-name="F_R" unicode="&#xe0e7;" horiz-adv-x="734" 
d="M694 379q0 -66 -40.5 -122.5t-109.5 -70.5l144 -186h-172l-134 183v-183h-134v309h-40v-309h-137v740h399v-128h-262v-181h40v150h197q71 0 115.5 -17t78.5 -52q55 -58 55 -133zM557 375q0 35 -25 60q-28 28 -82 28h-68v-32h88v-122h-88v-31h62q56 0 84 24q29 25 29 73z
" />
    <glyph glyph-name="G_A" unicode="&#xe0e9;" horiz-adv-x="1013" 
d="M943 0h-137v249h-2q-15 -43 -41.5 -84.5t-71.5 -84t-115.5 -68.5t-156.5 -26q-163 0 -277.5 112.5t-114.5 271.5q0 107 55.5 196.5t144 139t187.5 49.5q156 0 265 -94l-80 -118q-66 84 -187 84q-74 0 -132 -40t-87 -98t-29 -119q0 -96 60.5 -167t140.5 -84l89 130h-120
v128h208l249 363h152v-740zM806 377v173h-2l-109 -173h111zM651 249h-34l-79 -116q34 14 67 47.5t46 68.5z" />
    <glyph glyph-name="G_O" unicode="&#xe0fc;" horiz-adv-x="1184" 
d="M1151 368q0 -159 -113.5 -271t-273.5 -112q-88 0 -169 38q-82 -38 -170 -38q-105 0 -196.5 49.5t-146.5 138.5t-55 197q0 161 117.5 273t276.5 112q92 0 173 -39q80 39 170 39q159 0 273 -112t114 -275zM1014 369q0 107 -73 182.5t-177 75.5q-26 0 -46 -4q44 -50 62 -100
h-154q-10 17 -31 37q-78 -76 -81 -183h303v-16q0 -139 -95 -244q19 -4 42 -4q105 0 177.5 76t72.5 180zM652 249h-108q18 -35 54 -71q35 33 54 71zM471 117q-51 59 -75 132h-62v128h43q3 140 94 244q-25 6 -53 6q-79 0 -139 -41t-87.5 -98.5t-27.5 -118.5q0 -44 16.5 -88
t47.5 -82t82.5 -62t114.5 -24q26 0 46 4z" />
    <glyph glyph-name="H_T" unicode="&#xe10c;" horiz-adv-x="917" 
d="M915 612h-138v-612h-137v740h275v-128zM610 0h-137v311h-265v-311h-137v740h137v-301h265v173h-137v128h274v-740z" />
    <glyph glyph-name="I_C" unicode="&#xe10e;" horiz-adv-x="933" 
d="M919 529h-156q-85 98 -198 98q-93 0 -167 -74t-74 -182q0 -104 73.5 -181t172.5 -77q45 0 86 18t58 33.5t42 41.5h159q-43 -100 -138.5 -160.5t-203.5 -60.5q-123 0 -222 71.5t-140 183.5h-2v-240h-137v740h137v-238h2q40 110 137.5 181.5t221.5 71.5q103 0 201 -56.5
t148 -169.5z" />
    <glyph glyph-name="K_A" unicode="&#xe124;" horiz-adv-x="880" 
d="M810 0h-137v220h-176l-27 -41l132 -179h-161l-48 64l-43 -64h-279v740h137v-323l221 323h154l-255 -371l57 -76l305 447h120v-740zM673 348v147h-2l-92 -147h94zM307 181l-99 134v-279z" />
    <glyph glyph-name="L_A" unicode="&#xe130;" horiz-adv-x="764" 
d="M694 0h-137v205h-200l-54 -77h131v-128h-363v740h137v-511h2l359 511h125v-740zM557 333v163h-2l-110 -163h112z" />
    <glyph glyph-name="L_A.alt01" unicode="&#xe141;" horiz-adv-x="834" 
d="M764 0h-137v205h-200l-54 -77h100v-128h-402v740h137v-611h2l429 611h125v-740zM627 333v163h-2l-110 -163h112z" />
    <glyph glyph-name="L_L" unicode="&#xe152;" horiz-adv-x="548" 
d="M513 152h-280v588h137v-460h143v-128zM513 0h-441v740h137v-612h304v-128z" />
    <glyph glyph-name="N_T" unicode="&#xe153;" horiz-adv-x="971" 
d="M969 612h-130v-612h-137v740h267v-128zM672 0h-124l-338 490h-2v-490h-137v740h124l338 -490l2 1v361h-127v128h264v-740z" />
    <glyph glyph-name="O_C" unicode="&#xe15b;" horiz-adv-x="1132" 
d="M1118 529h-156q-85 98 -198 98q-26 0 -50 -6q93 -107 93 -253q0 -140 -92 -248q24 -7 54 -7q45 0 86 18t58 33.5t42 41.5h159q-43 -100 -138.5 -160.5t-203.5 -60.5q-94 0 -175 43q-81 -43 -177 -43q-160 0 -273.5 112t-113.5 271q0 163 114 275t273 112q94 0 176 -42
q81 42 173 42q103 0 201 -56.5t148 -169.5zM670 369q0 107 -74 183q-73 -75 -73 -181q0 -105 74 -182q73 75 73 180zM480 121q-94 110 -94 252q0 137 92 247q-25 7 -58 7q-104 0 -177 -75.5t-73 -182.5q0 -104 72.5 -180t177.5 -76q30 0 60 8z" />
    <glyph glyph-name="O_O" unicode="&#xe170;" horiz-adv-x="1193" 
d="M1160 368q0 -159 -113.5 -271t-273.5 -112q-95 0 -176 42q-82 -42 -177 -42q-160 0 -273.5 112t-113.5 271q0 163 114 275t273 112q94 0 176 -42q84 42 177 42q159 0 273 -112t114 -275zM1023 369q0 107 -73 182.5t-177 75.5q-32 0 -59 -7q93 -107 93 -252
q0 -140 -92 -248q25 -7 58 -7q105 0 177.5 76t72.5 180zM670 369q0 107 -73 183q-74 -76 -74 -183q0 -105 73 -181q74 76 74 181zM479 620q-27 7 -59 7q-104 0 -177 -75.5t-73 -182.5q0 -104 72.5 -180t177.5 -76q33 0 58 7q-92 108 -92 248q0 145 93 252z" />
    <glyph glyph-name="P_P" unicode="&#xe172;" horiz-adv-x="715" 
d="M699 368q0 -90 -68 -146.5t-190 -56.5h-61v-165h-129v267h-42v-267h-137v740h211q221 0 266 -175q52 -16 87 -46q63 -56 63 -151zM423 463h-8h-35v-59q18 5 29.5 23t13.5 36zM561 369q0 34 -18 55q-10 -53 -51 -93.5t-112 -49.5v-10h66q48 0 81.5 25.5t33.5 72.5z
M402 576q-26 36 -114 36h-79v-224h42v188h151z" />
    <glyph glyph-name="P_R" unicode="&#xe173;" horiz-adv-x="724" 
d="M699 368q0 -63 -40 -117t-122 -72l138 -179h-166l-127 178h-2v-178h-129v267h-42v-267h-137v740h211q221 0 266 -175q52 -16 87 -46q63 -56 63 -151zM423 463h-8h-35v-59q18 5 29.5 23t13.5 36zM561 369q0 34 -18 55q-10 -53 -51 -93.5t-112 -49.5v-10h66q48 0 81.5 25.5
t33.5 72.5zM402 576q-26 36 -114 36h-79v-224h42v188h151z" />
    <glyph glyph-name="R_A" unicode="&#xe174;" horiz-adv-x="1003" 
d="M943 0h-137v211h-181l-104 -152l44 -59h-251l43 61l-154 222h-2v-283h-137v740h231q79 0 123 -15.5t79 -48.5q72 -68 72 -165q0 -96 -57.5 -162.5t-148.5 -75.5l74 -99l397 566h109v-740zM806 328v144h-2l-99 -144h101zM432 502q0 15 -5.5 31.5t-18.5 35.5t-42 31t-70 12
h-95v-226h92q69 0 104 30.5t35 85.5z" />
    <glyph glyph-name="S_S" unicode="&#xe185;" horiz-adv-x="815" 
d="M788 221q0 -106 -67 -171t-173 -65q-80 0 -143 49q-65 -49 -152 -49q-38 0 -77 13t-75.5 39t-61 71.5t-27.5 103.5h144q5 -51 33.5 -75t64.5 -24q42 0 72 26t30 67q0 14 -3 26t-5.5 20.5t-12 17t-14.5 13t-21 12.5l-23 11.5t-29 12.5t-32 13q-29 12 -43.5 19.5t-42 26.5
t-42.5 39.5t-27 54.5t-12 76q0 93 61 150t156 57q84 0 145 -57q62 57 151 57q77 0 145.5 -54t73.5 -157h-140q-8 83 -83 83q-33 0 -54.5 -21t-21.5 -54q0 -43 24.5 -62.5t87.5 -40.5q21 -7 36 -13t40.5 -19t44 -29.5t36.5 -39.5t27.5 -55.5t9.5 -71.5zM398 397
q-53 57 -53 147q-8 83 -83 83q-36 0 -56 -21t-20 -51q0 -36 24 -60t85 -50q75 -30 103 -48zM651 203q0 48 -27.5 71.5t-105.5 53.5q-54 21 -79 36q54 -56 54 -143q0 -37 -10 -75q22 -33 76 -33q39 0 65.5 25.5t26.5 64.5z" />
    <glyph glyph-name="S_T" unicode="&#xe186;" horiz-adv-x="852" 
d="M824 612h-138v-612h-137v612h-73q13 -36 13 -68h-140q-1 37 -23 60t-51 23q-34 0 -56 -21.5t-22 -55.5q0 -40 26.5 -63.5t85.5 -45.5q95 -37 141.5 -92t46.5 -139q0 -90 -59.5 -157.5t-168.5 -67.5q-112 0 -179 66.5t-67 160.5h142q0 -45 28 -72t71 -27q48 0 72 27.5
t24 60.5q0 39 -21.5 68t-85.5 52q-87 32 -131 73q-62 59 -62 153q0 91 63 149.5t154 58.5q82 0 135 -51v36h412v-128z" />
    <glyph glyph-name="S_T.alt01" unicode="&#xe18e;" horiz-adv-x="769" 
d="M767 612h-138v-612h-137v185h-2q-11 -95 -79 -147.5t-158 -52.5q-38 0 -77 13t-75.5 39t-61 71.5t-27.5 103.5h144q5 -51 33.5 -75t64.5 -24q42 0 72 26t30 67q0 11 -2 21l-3.5 17.5t-7.5 15t-9.5 12.5t-14 11.5t-15 9.5t-19 9t-20.5 8.5l-24 10t-26 10.5q-70 29 -98 51
q-68 56 -69 153q0 95 61 150t166 55h50v-128h-60q-38 0 -59 -20.5t-21 -49.5q0 -42 27 -61t94 -41q80 -26 127 -65.5t57 -117.5h2v355h-137v128h412v-128z" />
    <glyph glyph-name="T_H" unicode="&#xe196;" horiz-adv-x="917" 
d="M846 0h-137v311h-265v-311h-137v740h274v-128h-137v-173h265v301h137v-740zM277 0h-137v612h-138v128h275v-740z" />
    <glyph glyph-name="T_T" unicode="&#xe198;" horiz-adv-x="813" 
d="M811 612h-138v-612h-137v612h-256v-612h-137v612h-137v128h805v-128z" />
    <glyph glyph-name="T_T.alt01" unicode="&#xe199;" horiz-adv-x="587" 
d="M585 612h-138v-612h-137v740h275v-128zM280 0h-137v612h-137v128h274v-740z" />
    <glyph glyph-name="T_U" unicode="&#xe19a;" horiz-adv-x="868" 
d="M803 277q0 -150 -75 -222q-73 -70 -177 -70q-102 0 -172 70q-72 72 -72 203v482h271v-128h-134v-352q0 -76 31.5 -111.5t80.5 -35.5q51 0 80.5 36.5t29.5 110.5v480h137v-463zM277 0h-137v612h-138v128h275v-740z" />
    <glyph glyph-name="T_h" unicode="&#xe1a5;" horiz-adv-x="963" 
d="M910 0h-133v284q0 24 -1 41t-7.5 43t-17.5 42.5t-34 29t-54 12.5q-112 0 -112 -170v-282h-133v612h-138v-612h-137v612h-137v128h545v-224q62 58 144 58q47 0 94 -23.5t77 -61.5q44 -56 44 -176v-313z" />
    <glyph glyph-name="U_T" unicode="&#xe1a9;" horiz-adv-x="868" 
d="M866 612h-138v-612h-137v740h275v-128zM561 258q0 -131 -72 -203q-70 -70 -172 -70q-104 0 -177 70q-75 72 -75 222v463h137v-480q0 -74 29.5 -110.5t80.5 -36.5q49 0 80.5 35.5t31.5 111.5v352h-134v128h271v-482z" />
    <glyph glyph-name="c_t" unicode="&#xe1b8;" horiz-adv-x="709" 
d="M708 437h-80v-437h-133v437h-65v118h65v185h133v-185h80v-118zM465 14q-50 -32 -139 -32q-128 0 -208.5 84.5t-80.5 202.5q0 133 87 209.5t212 76.5h64v-118h-49q-85 0 -133 -46.5t-48 -118.5q0 -68 43.5 -118t123.5 -50q81 0 128 58v-148z" />
    <glyph glyph-name="o_o" unicode="&#xe1c1;" horiz-adv-x="893" 
d="M868 279q0 -132 -87 -214.5t-207 -82.5q-66 0 -125 28q-62 -28 -128 -28q-123 0 -209.5 87.5t-86.5 207.5q0 125 87.5 211t208.5 86q67 0 127 -29q58 29 126 29q120 0 207 -85t87 -210zM735 276q0 74 -48.5 125t-112.5 51q-9 0 -14 -1q55 -74 55 -172q0 -100 -53 -175h12
q70 0 115.5 51.5t45.5 120.5zM482 276q0 61 -36 110q-35 -47 -35 -109t35 -109q36 47 36 108zM335 105q-57 78 -57 172q0 97 56 174q-4 1 -13 1q-59 0 -111 -47.5t-52 -127.5q0 -76 48.5 -124.5t114.5 -48.5q9 0 14 1z" />
    <glyph glyph-name="s_s" unicode="&#xe1c3;" horiz-adv-x="695" 
d="M676 176q0 -89 -58.5 -141.5t-135.5 -52.5t-133 41q-53 -41 -122 -41q-108 0 -166 73q-35 44 -42 120h136q4 -18 9 -30.5t22 -26.5t42 -14q29 0 44.5 17.5t15.5 38.5q0 29 -23 43t-101 40q-125 42 -125 159q0 77 57.5 124.5t129.5 47.5q70 0 124 -48q56 48 130 48
q68 0 122.5 -46t58.5 -124h-130q-10 48 -53 48q-23 0 -37 -14.5t-14 -33.5q0 -23 18 -33.5t76 -28.5q33 -11 54.5 -20.5t47.5 -28t39.5 -48t13.5 -69.5zM543 160q0 29 -23 42.5t-102 40.5q-2 1 -6 2.5t-6 1.5q15 -32 15 -71q0 -10 -2 -30q18 -42 64 -42q29 0 44.5 17.5
t15.5 38.5zM312 326q-18 36 -18 76v3q-10 47 -70 47q-23 0 -37.5 -13.5t-14.5 -29.5q0 -27 17.5 -37.5t77.5 -29.5q21 -7 45 -16z" />
    <glyph glyph-name="s_t" unicode="&#xe1c4;" horiz-adv-x="666" 
d="M665 437h-80v-437h-133v437h-50q2 -11 4 -33h-130q-10 48 -53 48q-23 0 -37 -14.5t-14 -33.5q0 -23 18 -33.5t76 -28.5q33 -11 54.5 -20.5t47.5 -28t39.5 -48t13.5 -69.5q0 -89 -58.5 -141.5t-135.5 -52.5q-108 0 -166 73q-35 44 -42 120h136q4 -18 9 -30.5t22 -26.5
t42 -14q29 0 44.5 17.5t15.5 38.5q0 29 -23 42.5t-102 40.5q-54 18 -89 57t-35 102q0 77 57 124.5t129 47.5q48 0 93.5 -25.5t68.5 -70.5v77h65v185h133v-185h80v-118z" />
    <glyph glyph-name="s_t.alt01" unicode="&#xe1cc;" horiz-adv-x="633" 
d="M632 437h-80v-437h-133v138h-2q-11 -71 -66.5 -113.5t-123.5 -42.5q-108 0 -166 73q-35 44 -42 120h136q4 -18 9 -30.5t22 -26.5t42 -14q29 0 44.5 17.5t15.5 38.5q0 29 -19.5 41.5t-86.5 33.5q-69 21 -103 59.5t-34 98.5q0 71 49.5 116.5t136.5 45.5h93v-118h-95
q-24 0 -37.5 -12t-13.5 -30q0 -22 20.5 -34.5t70.5 -24.5q61 -15 100 -42t48 -81h2v224h-65v118h65v185h133v-185h80v-118z" />
    <glyph glyph-name="t_t" unicode="&#xe1d4;" horiz-adv-x="556" 
d="M555 437h-80v-437h-133v437h-123v-437h-133v437h-65v118h65v185h133v-185h123v185h133v-185h80v-118z" />
    <glyph glyph-name="t_t.alt01" unicode="&#xe1d6;" horiz-adv-x="478" 
d="M477 437h-80v-437h-133v740h133v-185h80v-118zM234 0h-133v437h-80v118h80v185h133v-740z" />
    <glyph glyph-name="zero.numerator" unicode="&#xe1da;" horiz-adv-x="382" 
d="M350 449q0 -73 -44.5 -117.5t-114.5 -44.5q-68 0 -113.5 44.5t-45.5 120.5v136q0 69 46.5 115t113.5 46q68 0 113 -46t45 -113v-141zM254 446v146q0 30 -16 50t-47 20t-47 -19.5t-16 -50.5v-145q0 -32 16 -52.5t47 -20.5t47 20.5t16 51.5z" />
    <glyph glyph-name="one.numerator" unicode="&#xe1db;" horiz-adv-x="248" 
d="M176 296h-96v358h-55v86h151v-444z" />
    <glyph glyph-name="two.numerator" unicode="&#xe1dc;" horiz-adv-x="336" 
d="M322 296h-304v81l159 147q49 45 49 80q0 26 -16.5 42.5t-42.5 16.5q-58 0 -58 -80h-95q-1 6 -1 18q0 63 45.5 105.5t108.5 42.5t109 -42t46 -105q0 -75 -87 -150l-80 -70h167v-86z" />
    <glyph glyph-name="three.numerator" unicode="&#xe1dd;" horiz-adv-x="336" 
d="M328 437q0 -66 -48 -108t-114 -42t-110.5 41.5t-47.5 106.5h96q2 -27 20 -44.5t45 -17.5t45 18t18 45q0 42 -26 54.5t-73 12.5v86h18.5t16.5 2t16.5 5.5t9.5 11.5t5 20q0 35 -34 35q-28 0 -28 -36h-96q3 54 37.5 88t88.5 34q51 0 89.5 -35.5t38.5 -86.5q0 -48 -34 -76
q32 -14 49.5 -45.5t17.5 -68.5z" />
    <glyph glyph-name="four.numerator" unicode="&#xe1de;" horiz-adv-x="378" 
d="M360 361h-49v-65h-90v65h-198v70l212 309h76v-297h49v-82zM221 443v159h-2l-97 -159h99z" />
    <glyph glyph-name="five.numerator" unicode="&#xe1df;" horiz-adv-x="359" 
d="M341 450q0 -71 -45.5 -117t-116.5 -46q-64 0 -109 40.5t-54 106.5h93q14 -61 69 -61q33 0 50 21t17 52q0 28 -17 48.5t-50 20.5q-40 0 -66 -32l-77 18l42 239h224v-86h-155l-12 -72q26 19 62 19q66 0 105.5 -43t39.5 -108z" />
    <glyph glyph-name="six.numerator" unicode="&#xe1e0;" horiz-adv-x="355" 
d="M345 455q0 -71 -47 -119.5t-118 -48.5q-70 0 -118.5 47t-48.5 116q0 58 39 116l115 174h113l-105 -139l1 -1q9 6 29 6q60 0 100 -44.5t40 -106.5zM249 448q0 33 -19 55t-52 22q-32 0 -51 -21t-19 -53q0 -33 19 -55.5t52 -22.5q32 0 51 21.5t19 53.5z" />
    <glyph glyph-name="seven.numerator" unicode="&#xe1e1;" horiz-adv-x="317" 
d="M295 657l-158 -361h-103l160 357h-176v87h277v-83z" />
    <glyph glyph-name="eight.numerator" unicode="&#xe1e2;" horiz-adv-x="354" 
d="M338 432q0 -62 -47 -103.5t-113 -41.5q-67 0 -114.5 41.5t-47.5 102.5q0 71 61 110q-38 32 -38 80q0 54 41 91t98 37t97 -37t40 -91q0 -49 -39 -81q62 -38 62 -108zM245 433q0 29 -18.5 47t-49.5 18q-29 0 -48 -18.5t-19 -46.5q0 -25 18.5 -42.5t48.5 -17.5q31 0 49.5 18
t18.5 42zM227 624q0 18 -12.5 30.5t-36.5 12.5t-37.5 -13t-13.5 -33t13.5 -32.5t36.5 -12.5q24 0 37 13.5t13 34.5z" />
    <glyph glyph-name="nine.numerator" unicode="&#xe1e3;" horiz-adv-x="355" 
d="M10 581q0 71 47 119.5t118 48.5q70 0 118.5 -47t48.5 -116q0 -58 -39 -116l-115 -174h-113l105 139l-1 1q-9 -6 -29 -6q-60 0 -100 44.5t-40 106.5zM106 588q0 -33 19 -55t52 -22q32 0 51 21t19 53q0 33 -19 55.5t-52 22.5q-32 0 -51 -21.5t-19 -53.5z" />
    <glyph glyph-name="zero.denominator" unicode="&#xe1e4;" horiz-adv-x="382" 
d="M350 153q0 -73 -44.5 -117.5t-114.5 -44.5q-68 0 -113.5 44.5t-45.5 120.5v136q0 69 46.5 115t113.5 46q68 0 113 -46t45 -113v-141zM254 150v146q0 30 -16 50t-47 20t-47 -19.5t-16 -50.5v-145q0 -32 16 -52.5t47 -20.5t47 20.5t16 51.5z" />
    <glyph glyph-name="one.denominator" unicode="&#xe1e5;" horiz-adv-x="248" 
d="M176 0h-96v358h-55v86h151v-444z" />
    <glyph glyph-name="two.denominator" unicode="&#xe1e6;" horiz-adv-x="336" 
d="M322 0h-304v81l159 147q49 45 49 80q0 26 -16.5 42.5t-42.5 16.5q-58 0 -58 -80h-95q-1 6 -1 18q0 63 45.5 105.5t108.5 42.5t109 -42t46 -105q0 -75 -87 -150l-80 -70h167v-86z" />
    <glyph glyph-name="three.denominator" unicode="&#xe1e7;" horiz-adv-x="336" 
d="M328 141q0 -66 -48 -108t-114 -42t-110.5 41.5t-47.5 106.5h96q2 -27 20 -44.5t45 -17.5t45 18t18 45q0 42 -26 54.5t-73 12.5v86h18.5t16.5 2t16.5 5.5t9.5 11.5t5 20q0 35 -34 35q-28 0 -28 -36h-96q3 54 37.5 88t88.5 34q51 0 89.5 -35.5t38.5 -86.5q0 -48 -34 -76
q32 -14 49.5 -45.5t17.5 -68.5z" />
    <glyph glyph-name="four.denominator" unicode="&#xe1e8;" horiz-adv-x="378" 
d="M360 65h-49v-65h-90v65h-198v70l212 309h76v-297h49v-82zM221 147v159h-2l-97 -159h99z" />
    <glyph glyph-name="five.denominator" unicode="&#xe1e9;" horiz-adv-x="359" 
d="M341 154q0 -71 -45.5 -117t-116.5 -46q-64 0 -109 40.5t-54 106.5h93q14 -61 69 -61q33 0 50 21t17 52q0 28 -17 48.5t-50 20.5q-40 0 -66 -32l-77 18l42 239h224v-86h-155l-12 -72q26 19 62 19q66 0 105.5 -43t39.5 -108z" />
    <glyph glyph-name="six.denominator" unicode="&#xe1ea;" horiz-adv-x="355" 
d="M345 159q0 -71 -47 -119.5t-118 -48.5q-70 0 -118.5 47t-48.5 116q0 58 39 116l115 174h113l-105 -139l1 -1q9 6 29 6q60 0 100 -44.5t40 -106.5zM249 152q0 33 -19 55t-52 22q-32 0 -51 -21t-19 -53q0 -33 19 -55.5t52 -22.5q32 0 51 21.5t19 53.5z" />
    <glyph glyph-name="seven.denominator" unicode="&#xe1eb;" horiz-adv-x="317" 
d="M295 361l-158 -361h-103l160 357h-176v87h277v-83z" />
    <glyph glyph-name="eight.denominator" unicode="&#xe1ec;" horiz-adv-x="354" 
d="M338 136q0 -62 -47 -103.5t-113 -41.5q-67 0 -114.5 41.5t-47.5 102.5q0 71 61 110q-38 32 -38 80q0 54 41 91t98 37t97 -37t40 -91q0 -49 -39 -81q62 -38 62 -108zM245 137q0 29 -18.5 47t-49.5 18q-29 0 -48 -18.5t-19 -46.5q0 -25 18.5 -42.5t48.5 -17.5q31 0 49.5 18
t18.5 42zM227 328q0 18 -12.5 30.5t-36.5 12.5t-37.5 -13t-13.5 -33t13.5 -32.5t36.5 -12.5q24 0 37 13.5t13 34.5z" />
    <glyph glyph-name="nine.denominator" unicode="&#xe1ed;" horiz-adv-x="355" 
d="M10 285q0 71 47 119.5t118 48.5q70 0 118.5 -47t48.5 -116q0 -58 -39 -116l-115 -174h-113l105 139l-1 1q-9 -6 -29 -6q-60 0 -100 44.5t-40 106.5zM106 292q0 -33 19 -55t52 -22q32 0 51 21t19 53q0 33 -19 55.5t-52 22.5q-32 0 -51 -21.5t-19 -53.5z" />
    <glyph glyph-name="zero.superior" unicode="&#xe1ee;" horiz-adv-x="382" 
d="M350 574q0 -73 -44.5 -117.5t-114.5 -44.5q-68 0 -113.5 44.5t-45.5 120.5v136q0 69 46.5 115t113.5 46q68 0 113 -46t45 -113v-141zM254 571v146q0 30 -16 50t-47 20t-47 -19.5t-16 -50.5v-145q0 -32 16 -52.5t47 -20.5t47 20.5t16 51.5z" />
    <glyph glyph-name="four.superior" unicode="&#xe1ef;" horiz-adv-x="378" 
d="M360 486h-49v-65h-90v65h-198v70l212 309h76v-297h49v-82zM221 568v159h-2l-97 -159h99z" />
    <glyph glyph-name="five.superior" unicode="&#xe1f0;" horiz-adv-x="359" 
d="M341 575q0 -71 -45.5 -117t-116.5 -46q-64 0 -109 40.5t-54 106.5h93q14 -61 69 -61q33 0 50 21t17 52q0 28 -17 48.5t-50 20.5q-40 0 -66 -32l-77 18l42 239h224v-86h-155l-12 -72q26 19 62 19q66 0 105.5 -43t39.5 -108z" />
    <glyph glyph-name="six.superior" unicode="&#xe1f1;" horiz-adv-x="355" 
d="M345 580q0 -71 -47 -119.5t-118 -48.5q-70 0 -118.5 47t-48.5 116q0 57 39 116l115 174h113l-105 -139l1 -1q9 6 29 6q60 0 100 -44.5t40 -106.5zM249 573q0 33 -19 55t-52 22q-32 0 -51 -21t-19 -53q0 -33 19 -55.5t52 -22.5q32 0 51 21.5t19 53.5z" />
    <glyph glyph-name="seven.superior" unicode="&#xe1f2;" horiz-adv-x="317" 
d="M295 782l-158 -361h-103l160 357h-176v87h277v-83z" />
    <glyph glyph-name="eight.superior" unicode="&#xe1f3;" horiz-adv-x="354" 
d="M338 557q0 -62 -47 -103.5t-113 -41.5q-67 0 -114.5 41.5t-47.5 102.5q0 71 61 110q-38 32 -38 80q0 54 41 91t98 37t97 -37t40 -91q0 -48 -39 -81q62 -38 62 -108zM245 558q0 29 -18.5 47t-49.5 18q-29 0 -48 -18.5t-19 -46.5q0 -25 18.5 -42.5t48.5 -17.5q31 0 49.5 18
t18.5 42zM227 749q0 18 -12.5 30.5t-36.5 12.5t-37.5 -13t-13.5 -33t13.5 -32.5t36.5 -12.5q24 0 37 13.5t13 34.5z" />
    <glyph glyph-name="nine.superior" unicode="&#xe1f4;" horiz-adv-x="355" 
d="M10 706q0 71 47 119.5t118 48.5q70 0 118.5 -47t48.5 -116q0 -57 -39 -116l-115 -174h-113l105 139l-1 1q-9 -6 -29 -6q-60 0 -100 44.5t-40 106.5zM106 713q0 -33 19 -55t52 -22q32 0 51 21t19 53q0 33 -19 55.5t-52 22.5q-32 0 -51 -21.5t-19 -53.5z" />
    <glyph glyph-name="zero.inferior" unicode="&#xe1f5;" horiz-adv-x="382" 
d="M350 29q0 -73 -44.5 -117.5t-114.5 -44.5q-68 0 -113.5 44.5t-45.5 120.5v136q0 69 46.5 115t113.5 46q68 0 113 -46t45 -113v-141zM254 26v146q0 30 -16 50t-47 20t-47 -19.5t-16 -50.5v-145q0 -32 16 -52.5t47 -20.5t47 20.5t16 51.5z" />
    <glyph glyph-name="one.inferior" unicode="&#xe1f6;" horiz-adv-x="248" 
d="M176 -124h-96v358h-55v86h151v-444z" />
    <glyph glyph-name="two.inferior" unicode="&#xe1f7;" horiz-adv-x="336" 
d="M322 -124h-304v81l159 147q49 45 49 80q0 26 -16.5 42.5t-42.5 16.5q-58 0 -58 -80h-95q-1 6 -1 18q0 63 45.5 105.5t108.5 42.5t109 -42t46 -105q0 -75 -87 -150l-80 -70h167v-86z" />
    <glyph glyph-name="three.inferior" unicode="&#xe1f8;" horiz-adv-x="336" 
d="M328 17q0 -66 -48 -108t-114 -42t-110.5 41.5t-47.5 106.5h96q2 -27 20 -44.5t45 -17.5t45 18t18 45q0 42 -26 54.5t-73 12.5v86h18.5t16.5 2t16.5 5.5t9.5 11.5t5 20q0 35 -34 35q-28 0 -28 -36h-96q3 54 37.5 88t88.5 34q51 0 89.5 -35.5t38.5 -86.5q0 -48 -34 -76
q32 -14 49.5 -45.5t17.5 -68.5z" />
    <glyph glyph-name="four.inferior" unicode="&#xe1f9;" horiz-adv-x="378" 
d="M360 -59h-49v-65h-90v65h-198v70l212 309h76v-297h49v-82zM221 23v159h-2l-97 -159h99z" />
    <glyph glyph-name="five.inferior" unicode="&#xe1fa;" horiz-adv-x="359" 
d="M341 30q0 -71 -45.5 -117t-116.5 -46q-64 0 -109 40.5t-54 106.5h93q14 -61 69 -61q33 0 50 21t17 52q0 28 -17 48.5t-50 20.5q-40 0 -66 -32l-77 18l42 239h224v-86h-155l-12 -72q26 19 62 19q66 0 105.5 -43t39.5 -108z" />
    <glyph glyph-name="six.inferior" unicode="&#xe1fb;" horiz-adv-x="355" 
d="M345 35q0 -71 -47 -119.5t-118 -48.5q-70 0 -118.5 47t-48.5 116q0 58 39 116l115 174h113l-105 -139l1 -1q9 6 29 6q60 0 100 -44.5t40 -106.5zM249 28q0 33 -19 55t-52 22q-32 0 -51 -21t-19 -53q0 -33 19 -55.5t52 -22.5q32 0 51 21.5t19 53.5z" />
    <glyph glyph-name="seven.inferior" unicode="&#xe1fc;" horiz-adv-x="317" 
d="M295 237l-158 -361h-103l160 357h-176v87h277v-83z" />
    <glyph glyph-name="eight.inferior" unicode="&#xe1fd;" horiz-adv-x="354" 
d="M338 12q0 -62 -47 -103.5t-113 -41.5q-67 0 -114.5 41.5t-47.5 102.5q0 71 61 110q-38 32 -38 80q0 54 41 91t98 37t97 -37t40 -91q0 -49 -39 -81q62 -38 62 -108zM245 13q0 29 -18.5 47t-49.5 18q-29 0 -48 -18.5t-19 -46.5q0 -25 18.5 -42.5t48.5 -17.5q31 0 49.5 18
t18.5 42zM227 204q0 18 -12.5 30.5t-36.5 12.5t-37.5 -13t-13.5 -33t13.5 -32.5t36.5 -12.5q24 0 37 13.5t13 34.5z" />
    <glyph glyph-name="nine.inferior" unicode="&#xe1fe;" horiz-adv-x="355" 
d="M10 161q0 71 47 119.5t118 48.5q70 0 118.5 -47t48.5 -116q0 -58 -39 -116l-115 -174h-113l105 139l-1 1q-9 -6 -29 -6q-60 0 -100 44.5t-40 106.5zM106 168q0 -33 19 -55t52 -22q32 0 51 21t19 53q0 33 -19 55.5t-52 22.5q-32 0 -51 -21.5t-19 -53.5z" />
    <glyph glyph-name="zero.fitted" unicode="&#xe1ff;" horiz-adv-x="577" 
d="M537 506v-273q0 -109 -69.5 -178.5t-178.5 -69.5q-108 0 -188 81q-61 62 -61 174v266q0 112 70.5 180.5t182.5 68.5q106 0 175 -71.5t69 -177.5zM404 245v260q0 51 -32 87.5t-82 36.5q-55 0 -86 -36.5t-31 -92.5v-252q0 -59 29.5 -98t86.5 -39t86 37.5t29 96.5z" />
    <glyph glyph-name="one.fitted" unicode="&#xe200;" horiz-adv-x="353" 
d="M253 0h-133v614h-105v126h238v-740z" />
    <glyph glyph-name="two.fitted" unicode="&#xe201;" horiz-adv-x="552" 
d="M512 0h-479v126l264 246q82 76 82 146q0 49 -30 80t-78 31q-31 0 -58 -16t-41 -44t-14 -83h-132q-1 8 -1 24q0 102 70.5 173.5t172.5 71.5t173 -70.5t71 -172.5q0 -73 -38 -132.5t-105 -119.5l-150 -134h293v-126z" />
    <glyph glyph-name="three.fitted" unicode="&#xe202;" horiz-adv-x="570" 
d="M521 233q0 -106 -74 -177t-180 -71q-102 0 -173 68t-77 170h133q5 -47 39 -79.5t81 -32.5q48 0 83 36t35 84q0 61 -42 92t-105 31h-22v126h23q40 0 66.5 20t26.5 59q0 70 -66 70q-28 0 -46 -20t-20 -48h-133q12 140 129 182q36 12 68 12q82 0 141.5 -59t59.5 -141
q0 -85 -64 -131q58 -25 87.5 -75.5t29.5 -115.5z" />
    <glyph glyph-name="four.fitted" unicode="&#xe203;" horiz-adv-x="586" 
d="M567 111h-88v-111h-133v111h-334v109l355 520h112v-503h88v-126zM346 237v278h-2l-189 -278h191z" />
    <glyph glyph-name="five.fitted" unicode="&#xe204;" 
d="M535 243q0 -107 -75 -182.5t-182 -75.5q-98 0 -173.5 69t-79.5 166h133q9 -48 39.5 -78.5t77.5 -30.5q55 0 91 38.5t36 93.5q0 52 -36.5 91t-88.5 39q-59 0 -100 -53l-119 33l70 387h335v-126h-235l-24 -136q48 21 95 21q101 0 168.5 -77t67.5 -179z" />
    <glyph glyph-name="six.fitted" unicode="&#xe205;" horiz-adv-x="555" 
d="M538 251q0 -110 -73.5 -188t-182.5 -78q-110 0 -183.5 77t-73.5 188q0 84 60 175l206 314h156l-164 -250q10 3 31 3q96 0 160 -71.5t64 -169.5zM405 239q0 53 -36.5 91.5t-89.5 38.5q-50 0 -85.5 -37t-35.5 -88q0 -54 35.5 -93.5t88.5 -39.5q52 0 87.5 38t35.5 90z" />
    <glyph glyph-name="seven.fitted" unicode="&#xe206;" horiz-adv-x="481" 
d="M463 614l-267 -614h-148l276 614h-319v126h458v-126z" />
    <glyph glyph-name="eight.fitted" unicode="&#xe207;" 
d="M527 225q0 -100 -73.5 -170t-173.5 -70t-173.5 70t-73.5 170q0 128 110 186q-66 64 -66 140q0 86 58.5 145t144.5 59t145 -59t59 -145q0 -75 -67 -140q110 -58 110 -186zM359 549q0 33 -23 56.5t-56 23.5t-55.5 -23.5t-22.5 -56.5q0 -32 23 -55.5t55 -23.5t55.5 23.5
t23.5 55.5zM394 225q0 47 -33.5 80.5t-80.5 33.5t-80.5 -33.5t-33.5 -80.5t33.5 -80.5t80.5 -33.5t80.5 33.5t33.5 80.5z" />
    <glyph glyph-name="nine.fitted" unicode="&#xe208;" 
d="M535 489q0 -84 -60 -175l-206 -314h-156l164 250q-10 -3 -31 -3q-96 0 -160 71.5t-64 169.5q0 110 73.5 188t182.5 78q110 0 183.5 -77t73.5 -188zM402 495q0 54 -35 93.5t-88 39.5t-88.5 -37.5t-35.5 -90.5q0 -56 34.5 -93t89.5 -37q51 0 87 37t36 88z" />
    <glyph glyph-name="parenleft.cap" unicode="&#xe209;" horiz-adv-x="380" 
d="M74 369q0 190 71.5 322t204.5 184v-144q-139 -98 -139 -362t139 -362v-144q-133 52 -204.5 184t-71.5 322z" />
    <glyph glyph-name="parenright.cap" unicode="&#xe20a;" horiz-adv-x="380" 
d="M313 369q0 -190 -71.5 -322t-204.5 -184v144q139 98 139 362t-139 362v144q133 -52 204.5 -184t71.5 -322z" />
    <glyph glyph-name="bracketleft.cap" unicode="&#xe20b;" horiz-adv-x="320" 
d="M284 -137q-218 51 -218 337v370q0 241 218 305v-146q-31 -15 -45 -31q-36 -43 -36 -156v-366q0 -63 16.5 -105t64.5 -62v-146z" />
    <glyph glyph-name="bracketright.cap" unicode="&#xe20c;" horiz-adv-x="320" 
d="M254 168q0 -241 -218 -305v147q30 12 45 30q36 43 36 157v365q0 63 -16.5 105t-64.5 62v146q218 -51 218 -337v-370z" />
    <glyph glyph-name="braceleft.cap" unicode="&#xe20d;" horiz-adv-x="340" 
d="M317 -99h-90q-19 0 -45 11q-41 17 -64.5 50.5t-23.5 76.5v216q0 36 -29 53t-68 17v99q37 0 67 14t30 47v216q0 43 23.5 76.5t64.5 50.5q26 11 45 11h90v-90h-45q-41 0 -41 -65v-212q0 -49 -36 -71.5t-89 -24.5v-3q61 -3 93 -25.5t32 -79.5v-212q0 -65 41 -65h45v-90z" />
    <glyph glyph-name="braceright.cap" unicode="&#xe20e;" horiz-adv-x="340" 
d="M343 325q-39 0 -68 -17t-29 -53v-216q0 -43 -23.5 -76.5t-64.5 -50.5q-26 -11 -45 -11h-90v90h45q41 0 41 65v212q0 57 32 79.5t93 25.5v3q-53 2 -89 24.5t-36 71.5v212q0 65 -41 65h-45v90h90q19 0 45 -11q41 -17 64.5 -50.5t23.5 -76.5v-216q0 -33 30 -47t67 -14v-99z
" />
    <glyph glyph-name="guilsinglleft.cap" unicode="&#xe20f;" horiz-adv-x="240" 
d="M190 189l-140 131v101l140 129v-123l-68 -57l68 -58v-123z" />
    <glyph glyph-name="guilsinglright.cap" unicode="&#xe210;" horiz-adv-x="240" 
d="M190 320l-140 -131v123l68 58l-68 57v123l140 -129v-101z" />
    <glyph glyph-name="guillemotleft.cap" unicode="&#xe211;" horiz-adv-x="460" 
d="M400 189l-140 131v101l140 129v-123l-68 -57l68 -58v-123zM201 189l-140 131v101l140 129v-123l-68 -57l68 -58v-123z" />
    <glyph glyph-name="guillemotright.cap" unicode="&#xe212;" horiz-adv-x="460" 
d="M400 320l-140 -131v123l68 58l-68 57v123l140 -129v-101zM201 320l-140 -131v123l68 58l-68 57v123l140 -129v-101z" />
    <glyph glyph-name="hyphen.cap" unicode="&#xe213;" horiz-adv-x="420" 
d="M349 311h-278v118h278v-118z" />
    <glyph glyph-name="endash.cap" unicode="&#xe214;" horiz-adv-x="500" 
d="M465 311h-430v118h430v-118z" />
    <glyph glyph-name="emdash.cap" unicode="&#xe215;" horiz-adv-x="1000" 
d="M965 311h-930v118h930v-118z" />
    <glyph glyph-name="exclamdown.cap" unicode="&#xe216;" horiz-adv-x="280" 
d="M207 613h-133v127h133v-127zM207 0h-133v551h133v-551z" />
    <glyph glyph-name="questiondown.cap" unicode="&#xe217;" 
d="M366 607h-133v133h133v-133zM521 216q-14 -166 -147 -215q-40 -16 -83 -16q-97 0 -160 65t-63 163q0 55 25.5 95t75.5 87q36 34 50 57.5t14 66.5v34h133v-29q0 -57 -17 -100.5t-41 -68.5t-48.5 -46t-41.5 -44.5t-17 -51.5q0 -44 25.5 -69.5t68.5 -25.5q47 0 66.5 24.5
t26.5 73.5h133z" />
    <glyph glyph-name="periodcentered.cap" unicode="&#xe218;" horiz-adv-x="280" 
d="M206 279h-133v133h133v-133z" />
    </font>
</defs>
</svg>
